<?xml version="1.0" encoding="iso-8859-1"?>
<!-- Generator: Adobe Illustrator 19.0.0, SVG Export Plug-In . SVG Version: 6.00 Build 0)  -->
<svg xmlns="http://www.w3.org/2000/svg" xmlns:xlink="http://www.w3.org/1999/xlink" version="1.1" id="Layer_1" x="0px" y="0px" viewBox="0 0 512 512" style="enable-background:new 0 0 512 512;" xml:space="preserve">
<g>
	<g>
		<path d="M482,201.21v49.145h-49.63l-26.92-59.71h-55.99v-59.71h-49.58v89.57l86.19,0.14l13.39,29.71H78.02    c-36.72,0-66.6,29.88-66.6,66.61v0.436H0v30h11.42v45.084h35.37c-0.46-2.96-0.76-5.98-0.92-9.04c-0.1-2-0.14-3.99-0.1-5.96    c0.07-5.11,0.58-10.12,1.51-15c7.4-39.58,41.17-70.52,83.11-72.65c1.52-0.08,3.07-0.12,4.6-0.12c43.45,0,79.88,31.12,87.6,72.77    c0.73,3.87,1.2,7.83,1.41,11.86c0.05,1.05,0.09,2.1,0.1,3.14c0.09,5.1-0.27,10.11-1.02,15h47.33c-0.46-2.96-0.76-5.98-0.92-9.04    c-0.1-1.99-0.14-3.98-0.11-5.96c0.07-5.07,0.57-10.09,1.49-15c2.96-16.02,10.3-30.95,21.49-43.35    c15.96-17.68,37.85-28.09,61.64-29.3c1.53-0.08,3.07-0.12,4.6-0.12h0.01c43.45,0,79.87,31.12,87.6,72.77    c0.72,3.87,1.19,7.83,1.4,11.86c0.05,1.05,0.09,2.1,0.1,3.14c0.09,5.1-0.26,10.11-1.02,15h35.81v-110.68H512V201.21H482z"/>
	</g>
</g>
<g>
	<g>
		<path d="M194.04,375.875c-0.63-12.35-5.01-23.62-11.97-32.77c-0.55-0.73-1.13-1.45-1.71-2.15c-0.73-0.87-1.49-1.73-2.28-2.56    c-0.47-0.51-0.95-1.01-1.45-1.5s-1-0.97-1.51-1.44c-10.59-9.8-24.74-15.74-40.13-15.74h-0.01c-1.01,0-2.04,0.02-3.06,0.08    c-5.93,0.3-11.61,1.47-16.92,3.37c-0.89,0.31-1.76,0.65-2.63,1.01c-0.86,0.35-1.72,0.73-2.56,1.12    c-19.82,9.3-33.47,29.22-34.03,52.08v0.11c-0.03,0.95-0.02,1.91,0,2.88v0.01c0.02,0.51,0.04,1.02,0.06,1.53    c0.05,1.05,0.13,2.08,0.24,3.11c0.09,0.86,0.19,1.7,0.31,2.54c0.24,1.62,0.55,3.22,0.91,4.79c0.16,0.7,0.33,1.39,0.52,2.07    c0.06,0.23,0.12,0.45,0.19,0.67c0.35,1.27,0.75,2.52,1.19,3.74c0,0.01,0,0.01,0.01,0.01c0.31,0.89,0.65,1.76,1,2.62    c2.32,5.63,5.48,10.8,9.31,15.38c0.74,0.89,1.51,1.75,2.3,2.59c0.47,0.5,0.94,0.98,1.42,1.46c0.33,0.33,0.66,0.64,0.99,0.96    c0.83,0.79,1.68,1.55,2.56,2.29c0.87,0.74,1.77,1.45,2.69,2.14c0.01,0,0.01,0.01,0.01,0.01c0.74,0.55,1.48,1.08,2.24,1.59    c0.76,0.52,1.53,1.01,2.31,1.5c1.18,0.72,2.38,1.4,3.61,2.04c0.82,0.42,1.65,0.83,2.49,1.22c0.84,0.38,1.69,0.76,2.55,1.11    c2.15,0.87,4.36,1.62,6.62,2.24c0.67,0.18,1.35,0.35,2.04,0.52c0.29,0.07,0.59,0.13,0.89,0.19c0.38,0.09,0.76,0.17,1.15,0.24    c0.37,0.08,0.74,0.15,1.11,0.21c0.31,0.06,0.61,0.11,0.92,0.16c0.42,0.07,0.85,0.13,1.27,0.19c0.24,0.03,0.47,0.06,0.71,0.09    c0.49,0.06,0.98,0.13,1.47,0.18c0.07,0,0.15,0.01,0.23,0.02c1.86,0.18,3.74,0.27,5.65,0.28h0.17c1,0,2.02-0.02,3.03-0.07    c31.13-1.59,55.4-26.95,56.15-57.6v-2.91v-0.08C194.08,376.895,194.06,376.385,194.04,375.875z"/>
	</g>
</g>
<g>
	<g>
		<path d="M417.65,375.875c-0.02-0.37-0.04-0.74-0.07-1.11c-0.02-0.26-0.04-0.53-0.06-0.79c-0.04-0.42-0.07-0.84-0.12-1.25    c-0.01-0.09-0.02-0.17-0.02-0.26c-0.04-0.33-0.08-0.66-0.12-0.99c-0.06-0.48-0.12-0.96-0.2-1.44c-0.05-0.36-0.11-0.71-0.17-1.07    c-0.04-0.24-0.08-0.48-0.13-0.72c-0.06-0.35-0.13-0.71-0.2-1.06c-0.18-0.94-0.4-1.88-0.63-2.8c-0.93-3.7-2.2-7.25-3.79-10.63    c-0.39-0.84-0.81-1.67-1.24-2.49c-0.86-1.64-1.8-3.23-2.82-4.77v-0.01c-0.5-0.77-1.02-1.52-1.57-2.27c0,0,0,0,0-0.01    c-0.54-0.74-1.09-1.47-1.67-2.19c-0.57-0.72-1.16-1.42-1.77-2.12c-0.6-0.69-1.22-1.36-1.86-2.02c-0.32-0.33-0.64-0.65-0.97-0.98    c-0.65-0.65-1.31-1.28-1.99-1.89c-0.34-0.31-0.68-0.61-1.03-0.91c-0.28-0.24-0.55-0.48-0.84-0.71c-0.07-0.06-0.14-0.12-0.22-0.18    c-0.35-0.29-0.71-0.57-1.07-0.86c-0.23-0.19-0.47-0.37-0.71-0.55c-0.49-0.38-0.98-0.74-1.49-1.1c-0.74-0.53-1.5-1.05-2.28-1.55    c-0.62-0.4-1.26-0.79-1.9-1.17c-0.02-0.01-0.03-0.02-0.05-0.03c-0.53-0.32-1.06-0.62-1.6-0.92c-0.68-0.38-1.37-0.74-2.07-1.08    c-0.32-0.17-0.64-0.32-0.96-0.47c-0.54-0.27-1.09-0.52-1.65-0.76c-0.14-0.07-0.28-0.13-0.42-0.18c-0.35-0.16-0.71-0.31-1.07-0.45    c-0.46-0.19-0.92-0.38-1.38-0.55c-0.55-0.21-1.11-0.41-1.67-0.6c-0.22-0.08-0.44-0.16-0.66-0.23c-0.55-0.18-1.1-0.35-1.65-0.52    c-0.44-0.13-0.89-0.26-1.35-0.38c-0.45-0.13-0.9-0.25-1.36-0.36c-0.59-0.15-1.18-0.28-1.77-0.4c-0.19-0.05-0.38-0.09-0.57-0.12    c-0.17-0.04-0.34-0.07-0.52-0.11c-0.43-0.09-0.87-0.17-1.3-0.24c-0.47-0.08-0.94-0.16-1.41-0.23c-0.47-0.07-0.95-0.13-1.42-0.19    c-0.29-0.04-0.58-0.07-0.87-0.1c-0.29-0.03-0.58-0.06-0.87-0.09c-0.94-0.08-1.88-0.15-2.83-0.19c-0.4-0.02-0.8-0.03-1.2-0.04    c-0.48-0.01-0.97-0.02-1.45-0.02h-0.01c-1.02,0-2.04,0.02-3.07,0.08c-0.37,0.02-0.74,0.04-1.11,0.07    c-0.27,0.01-0.53,0.03-0.79,0.06c-0.27,0.02-0.54,0.05-0.81,0.07c-0.27,0.03-0.54,0.06-0.81,0.09c-0.69,0.07-1.38,0.16-2.06,0.26    c-0.3,0.04-0.6,0.09-0.9,0.14c-0.26,0.04-0.53,0.08-0.79,0.13c-0.48,0.08-0.95,0.17-1.42,0.26c-0.31,0.06-0.61,0.12-0.91,0.19    c-0.26,0.06-0.52,0.12-0.78,0.18c-0.37,0.08-0.74,0.17-1.11,0.27c-0.46,0.11-0.92,0.24-1.38,0.36c-0.57,0.16-1.14,0.33-1.7,0.51    c-0.22,0.06-0.45,0.13-0.67,0.21c-0.56,0.18-1.12,0.37-1.68,0.57c-0.89,0.31-1.76,0.65-2.63,1.01c-0.86,0.35-1.72,0.73-2.56,1.12    c-0.5,0.24-1,0.48-1.49,0.73c-0.26,0.12-0.51,0.26-0.76,0.39c-0.68,0.35-1.35,0.72-2.01,1.1c-0.01,0.01-0.02,0.01-0.03,0.02    c-0.47,0.27-0.94,0.55-1.4,0.83c-0.31,0.18-0.62,0.38-0.93,0.58c-0.22,0.13-0.44,0.27-0.65,0.42c-0.78,0.51-1.54,1.03-2.29,1.58    c-0.33,0.24-0.66,0.48-0.98,0.72c-1.5,1.14-2.95,2.35-4.34,3.63c-0.21,0.19-0.42,0.38-0.63,0.59c-0.36,0.33-0.71,0.67-1.05,1.01    c-0.43,0.42-0.85,0.85-1.26,1.29c-0.07,0.06-0.14,0.14-0.21,0.22c-0.39,0.42-0.78,0.84-1.16,1.27c-0.49,0.55-0.97,1.12-1.45,1.7    c-0.22,0.26-0.42,0.52-0.63,0.79c-0.21,0.26-0.41,0.53-0.62,0.8c-0.41,0.52-0.8,1.05-1.18,1.59c-0.3,0.41-0.59,0.83-0.87,1.26    c-0.16,0.23-0.32,0.46-0.47,0.7c-0.31,0.48-0.62,0.96-0.92,1.45c-0.4,0.65-0.79,1.31-1.16,1.99c-0.09,0.14-0.17,0.29-0.25,0.43    c-0.1,0.19-0.2,0.37-0.29,0.55c-0.04,0.08-0.08,0.15-0.12,0.23c-0.09,0.14-0.17,0.29-0.24,0.44c-0.3,0.56-0.58,1.13-0.85,1.7    c-0.16,0.33-0.32,0.67-0.47,1.01c-0.16,0.34-0.32,0.69-0.47,1.04c-0.26,0.6-0.51,1.21-0.75,1.83c-0.19,0.45-0.36,0.91-0.53,1.37    c-0.08,0.23-0.17,0.46-0.25,0.69c-0.09,0.27-0.19,0.55-0.28,0.83c-0.09,0.27-0.19,0.55-0.27,0.83c-0.17,0.51-0.33,1.03-0.47,1.55    c-0.08,0.27-0.16,0.54-0.23,0.81c-0.27,0.98-0.52,1.98-0.73,2.98c-0.09,0.36-0.16,0.73-0.23,1.1c-0.12,0.59-0.23,1.18-0.33,1.78    c-0.1,0.63-0.2,1.27-0.28,1.9c-0.18,1.36-0.32,2.72-0.4,4.1c-0.01,0.07-0.01,0.15-0.01,0.23c-0.01,0.16-0.02,0.32-0.03,0.49    s-0.01,0.33-0.02,0.5c-0.02,0.33-0.03,0.66-0.04,0.99v0.15c-0.03,0.95-0.02,1.91,0,2.88v0.01c0.02,0.51,0.04,1.02,0.06,1.53v0.01    c0.03,0.59,0.07,1.17,0.11,1.75c0.01,0.03,0.01,0.06,0.01,0.09c0.01,0.11,0.02,0.22,0.03,0.33c0,0.04,0.01,0.07,0.01,0.11    c0.04,0.45,0.08,0.89,0.14,1.33c0,0.01,0,0.01,0,0.01c0.09,0.83,0.2,1.65,0.33,2.47c0.08,0.51,0.16,1.02,0.26,1.53    c0,0.02,0.01,0.04,0.01,0.06c0.01,0.11,0.03,0.22,0.06,0.33c0,0.01,0.01,0.03,0.01,0.04c0.01,0.04,0.01,0.09,0.02,0.13    c0.03,0.17,0.06,0.34,0.1,0.51c0.04,0.2,0.08,0.4,0.13,0.6c0.03,0.18,0.07,0.36,0.11,0.54c0.12,0.56,0.25,1.11,0.39,1.66    c0,0.01,0,0.02,0.01,0.02c0.15,0.61,0.31,1.21,0.48,1.8c0.12,0.43,0.25,0.86,0.39,1.28c0.1,0.33,0.2,0.66,0.31,0.99    c0.19,0.58,0.39,1.14,0.59,1.7c0.02,0.07,0.05,0.13,0.07,0.19c0.15,0.41,0.31,0.82,0.47,1.22c0,0.02,0.01,0.04,0.02,0.06    c0.02,0.05,0.04,0.11,0.07,0.16c0.1,0.26,0.2,0.52,0.31,0.77c0.11,0.26,0.21,0.52,0.33,0.78c0.24,0.57,0.5,1.14,0.77,1.7    c0.26,0.56,0.54,1.12,0.82,1.67c0.28,0.56,0.57,1.11,0.87,1.65c0.29,0.52,0.58,1.04,0.88,1.55c0.02,0.02,0.03,0.04,0.04,0.06    c0.3,0.51,0.6,1.01,0.92,1.5c0.01,0.02,0.02,0.03,0.03,0.05c0.01,0.01,0.01,0.02,0.02,0.03c0.89,1.41,1.84,2.77,2.84,4.09    c0.29,0.37,0.57,0.74,0.86,1.1c0.57,0.72,1.16,1.42,1.76,2.11c0.75,0.85,1.52,1.68,2.32,2.49c0.32,0.33,0.64,0.65,0.97,0.97    c0.44,0.42,0.89,0.85,1.36,1.27c0.4,0.37,0.8,0.72,1.21,1.08c0.01,0.01,0.02,0.01,0.03,0.02c0.42,0.36,0.84,0.72,1.27,1.07    c0.43,0.35,0.86,0.69,1.3,1.03c0.44,0.33,0.88,0.66,1.33,0.99c1.83,1.33,3.74,2.56,5.73,3.68c0.36,0.2,0.73,0.41,1.11,0.61    c0.56,0.3,1.12,0.59,1.69,0.87c0.38,0.19,0.76,0.37,1.14,0.54c0.63,0.3,1.26,0.59,1.9,0.86c0.1,0.04,0.21,0.09,0.31,0.13    c0.26,0.11,0.52,0.22,0.79,0.32c0.36,0.15,0.73,0.29,1.1,0.43c0.87,0.33,1.75,0.64,2.64,0.93c0.76,0.25,1.53,0.48,2.31,0.7    c0.25,0.07,0.49,0.14,0.74,0.2c0.65,0.18,1.31,0.34,1.98,0.49c0.4,0.09,0.8,0.17,1.2,0.26c0.4,0.08,0.8,0.16,1.21,0.24    c0.49,0.09,0.98,0.18,1.48,0.26c0.49,0.08,0.99,0.15,1.49,0.22c0.67,0.1,1.35,0.15,2.03,0.22c0.03,0,0.07,0.01,0.1,0.01    c0.12,0.01,0.25,0.03,0.38,0.04c0.19,0.02,0.37,0.03,0.56,0.05c0.23,0.02,0.46,0.04,0.68,0.05c0.38,0.03,0.76,0.05,1.14,0.07    c0.05,0.01,0.1,0.01,0.15,0.01c0.4,0.03,0.8,0.04,1.2,0.05c0.61,0.02,1.22,0.02,1.83,0.02h0.04c0.94,0,1.88-0.02,2.82-0.07    c0.37-0.02,0.74-0.04,1.11-0.07c0.37-0.03,0.74-0.05,1.1-0.09c0.33-0.03,0.66-0.06,0.98-0.09c0.4-0.04,0.81-0.09,1.21-0.14    c0.48-0.06,0.96-0.13,1.44-0.2c0.56-0.09,1.12-0.18,1.67-0.28c0.52-0.09,1.04-0.19,1.55-0.3c0.1-0.02,0.2-0.04,0.3-0.06    c0.47-0.1,0.93-0.2,1.39-0.31c0.04-0.01,0.08-0.02,0.13-0.04c0.52-0.12,1.04-0.25,1.56-0.39c0.36-0.1,0.71-0.2,1.07-0.3    c0.35-0.1,0.71-0.21,1.06-0.32c0.34-0.1,0.67-0.21,1.01-0.32c0.92-0.3,1.83-0.63,2.74-0.98c0.41-0.16,0.82-0.32,1.23-0.49    c0.52-0.21,1.04-0.44,1.56-0.67c0.33-0.15,0.67-0.3,1-0.46c0.42-0.2,0.84-0.4,1.26-0.61c0.32-0.16,0.64-0.32,0.96-0.49    c0.32-0.16,0.64-0.33,0.95-0.51c0.4-0.21,0.8-0.44,1.19-0.67c0.63-0.36,1.25-0.73,1.87-1.12c0.35-0.21,0.7-0.43,1.04-0.66    c0.39-0.25,0.77-0.51,1.15-0.78c0.56-0.38,1.1-0.77,1.64-1.17c0.01-0.01,0.03-0.02,0.04-0.03c0.19-0.13,0.37-0.28,0.56-0.42    c0.47-0.35,0.94-0.72,1.4-1.09c0.02-0.02,0.04-0.03,0.06-0.05c0.58-0.47,1.14-0.95,1.7-1.44c0.02-0.01,0.03-0.02,0.04-0.03    c0.56-0.5,1.11-1,1.65-1.51c0.25-0.23,0.49-0.46,0.73-0.7c0.42-0.41,0.84-0.83,1.24-1.25c0.23-0.23,0.45-0.46,0.66-0.7    c0.42-0.44,0.82-0.89,1.22-1.34c0.24-0.27,0.48-0.55,0.71-0.83c0.21-0.24,0.41-0.48,0.61-0.73c0.25-0.3,0.5-0.61,0.74-0.92    s0.48-0.62,0.72-0.93c0.73-0.97,1.43-1.96,2.09-2.97c0.19-0.28,0.38-0.56,0.56-0.85c0.19-0.3,0.38-0.6,0.56-0.9    c0.24-0.39,0.48-0.78,0.71-1.18c0.22-0.38,0.43-0.75,0.64-1.14c0.46-0.83,0.9-1.67,1.32-2.52c0.2-0.42,0.4-0.83,0.59-1.25    c0.19-0.4,0.37-0.8,0.54-1.2c0.23-0.54,0.46-1.08,0.68-1.63c0.11-0.27,0.22-0.55,0.32-0.82c0.11-0.28,0.21-0.55,0.31-0.83    c0.19-0.52,0.38-1.04,0.55-1.56c0.02-0.06,0.04-0.12,0.06-0.17c0.03-0.09,0.06-0.18,0.09-0.27c0.29-0.89,0.56-1.78,0.8-2.69    c0.01-0.03,0.02-0.05,0.02-0.08c0.07-0.23,0.13-0.46,0.19-0.69c0.11-0.42,0.21-0.84,0.31-1.26c0.01-0.06,0.03-0.13,0.04-0.2    c0.13-0.53,0.24-1.06,0.35-1.59c0.02-0.12,0.05-0.23,0.07-0.35c0.08-0.38,0.15-0.75,0.21-1.13c0.02-0.12,0.04-0.23,0.06-0.35    c0.05-0.31,0.11-0.63,0.16-0.95c0.02-0.15,0.04-0.29,0.06-0.44c0.07-0.47,0.13-0.93,0.19-1.4c0.11-0.92,0.2-1.84,0.27-2.77    c0.07-0.97,0.12-1.94,0.14-2.91c0.02-0.96,0.02-1.94,0-2.92v-0.07C417.7,376.905,417.68,376.395,417.65,375.875z"/>
	</g>
</g>
<g>
	<g>
		<g>
			<path d="M156.74,170.865l-32.4,49.64h145.54v-89.57h-39.39C200.63,130.935,173.06,145.865,156.74,170.865z"/>
			<polygon points="141.34,73.935 141.34,103.935 269.88,103.935 269.88,130.935 299.88,130.935 299.88,73.935    "/>
		</g>
	</g>
</g>
<g>
</g>
<g>
</g>
<g>
</g>
<g>
</g>
<g>
</g>
<g>
</g>
<g>
</g>
<g>
</g>
<g>
</g>
<g>
</g>
<g>
</g>
<g>
</g>
<g>
</g>
<g>
</g>
<g>
</g>
</svg>
