<?xml version="1.0" encoding="iso-8859-1"?>
<!-- Generator: Adobe Illustrator 19.0.0, SVG Export Plug-In . SVG Version: 6.00 Build 0)  -->
<svg xmlns="http://www.w3.org/2000/svg" xmlns:xlink="http://www.w3.org/1999/xlink" version="1.1" id="Layer_1" x="0px" y="0px" viewBox="0 0 512 512" style="enable-background:new 0 0 512 512;" xml:space="preserve">
<g>
	<g>
		<path d="M0,326.23v62h27.37c-0.03-0.86-0.05-1.74-0.05-2.61c0-4.24,0.41-8.38,1.2-12.39c1.01-5.25,2.68-10.28,4.9-15    c6.7-14.28,18.48-25.73,33.01-32H0z"/>
	</g>
</g>
<g>
	<g>
		<path d="M117.54,326.23c14.52,6.27,26.31,17.72,33.01,32c2.22,4.72,3.89,9.75,4.9,15c0.79,4.01,1.2,8.15,1.2,12.39    c0,0.87-0.02,1.75-0.05,2.61h76.79c-0.03-0.86-0.05-1.74-0.05-2.61c0-4.24,0.41-8.38,1.2-12.39c1.01-5.25,2.68-10.28,4.9-15    c6.7-14.28,18.49-25.73,33.01-32H117.54z"/>
	</g>
</g>
<g>
	<g>
		<path d="M323.57,326.23c14.52,6.27,26.31,17.72,33.01,32c0.62,1.31,1.19,2.64,1.72,3.99c0.53-1.35,1.1-2.68,1.72-3.99    c6.7-14.28,18.48-25.73,33.01-32H323.57z"/>
	</g>
</g>
<g>
	<g>
		<path d="M444.14,326.23c14.52,6.27,26.31,17.72,33.01,32c2.22,4.72,3.89,9.75,4.9,15c0.79,4.01,1.2,8.15,1.2,12.39    c0,0.87-0.02,1.75-0.05,2.61H512v-62H444.14z"/>
	</g>
</g>
<g>
	<g>
		<path d="M126.64,384.89c0-0.25-0.01-0.5-0.03-0.74c0.01-0.1,0-0.21-0.01-0.31c-0.02-0.42-0.04-0.83-0.08-1.24    c0-0.04-0.01-0.08-0.01-0.12c-0.04-0.46-0.09-0.91-0.15-1.37c-0.03-0.2-0.05-0.4-0.09-0.6c0-0.06-0.01-0.11-0.02-0.17    c-0.06-0.37-0.12-0.74-0.19-1.11c-0.04-0.24-0.09-0.47-0.14-0.7c-0.04-0.23-0.1-0.46-0.15-0.69c-0.03-0.13-0.06-0.26-0.09-0.39    c-0.01-0.03-0.02-0.07-0.03-0.1c-0.09-0.4-0.19-0.78-0.3-1.17c-0.16-0.57-0.33-1.12-0.52-1.67c-0.15-0.43-0.3-0.86-0.46-1.28    c-0.14-0.37-0.29-0.74-0.44-1.1c-0.13-0.31-0.27-0.61-0.41-0.91c-0.09-0.21-0.18-0.41-0.29-0.62c-0.15-0.31-0.3-0.62-0.46-0.93    c-0.2-0.38-0.4-0.75-0.62-1.13c-0.17-0.3-0.35-0.6-0.52-0.89c-0.03-0.04-0.05-0.08-0.07-0.12c-0.18-0.29-0.36-0.58-0.55-0.86    c-0.2-0.3-0.4-0.6-0.61-0.9c-0.21-0.3-0.42-0.6-0.64-0.89c-0.2-0.28-0.42-0.55-0.63-0.82s-0.43-0.53-0.66-0.8    c-0.27-0.32-0.54-0.63-0.82-0.94c-0.3-0.32-0.6-0.64-0.91-0.96c-0.13-0.14-0.27-0.27-0.4-0.4c-0.14-0.14-0.27-0.27-0.41-0.4    c-0.01-0.01-0.02-0.02-0.03-0.03c-0.32-0.3-0.64-0.59-0.97-0.88c-0.34-0.3-0.68-0.6-1.03-0.89c-0.32-0.26-0.64-0.51-0.96-0.75    c-0.27-0.2-0.54-0.41-0.82-0.6c-0.25-0.18-0.5-0.35-0.75-0.53c-0.03-0.01-0.05-0.03-0.08-0.05c-0.28-0.19-0.57-0.37-0.85-0.55    c-0.29-0.18-0.58-0.36-0.87-0.53c-0.33-0.2-0.67-0.39-1.01-0.58c-0.02-0.01-0.03-0.02-0.05-0.03c-0.32-0.17-0.64-0.34-0.96-0.5    c-0.43-0.21-0.86-0.42-1.3-0.62c-0.4-0.18-0.81-0.35-1.21-0.52c-0.38-0.15-0.76-0.3-1.14-0.44c-0.53-0.19-1.07-0.37-1.61-0.54    c-0.32-0.1-0.65-0.2-0.98-0.29c-0.36-0.11-0.74-0.2-1.11-0.29c-0.02,0-0.03-0.01-0.05-0.01c-0.11-0.03-0.23-0.06-0.34-0.08    c-0.18-0.04-0.36-0.08-0.54-0.12c-0.18-0.04-0.36-0.08-0.54-0.11c-0.36-0.08-0.72-0.14-1.09-0.2c-0.03,0-0.05-0.01-0.08-0.01    c-0.24-0.04-0.5-0.08-0.75-0.11c-0.25-0.04-0.5-0.07-0.75-0.1c-0.05-0.01-0.1-0.01-0.15-0.02c-0.39-0.04-0.79-0.08-1.19-0.11    c-0.31-0.03-0.63-0.05-0.95-0.06c-0.16-0.01-0.32-0.02-0.48-0.02c-0.44-0.02-0.87-0.03-1.31-0.03c-0.43,0-0.86,0.01-1.29,0.03    c-0.16,0-0.33,0.01-0.49,0.02c-0.32,0.01-0.64,0.03-0.96,0.06c-0.4,0.03-0.79,0.07-1.18,0.11c-0.17,0.02-0.33,0.04-0.49,0.06    c-0.23,0.03-0.45,0.06-0.67,0.09c-0.17,0.03-0.33,0.05-0.49,0.08c-0.38,0.06-0.76,0.13-1.14,0.2c-0.37,0.08-0.75,0.16-1.12,0.24    c-0.09,0.02-0.17,0.04-0.25,0.06h-0.01c-0.05,0.01-0.1,0.02-0.15,0.04c-0.36,0.08-0.72,0.18-1.08,0.28    c-0.33,0.09-0.66,0.19-0.99,0.29c-0.09,0.03-0.18,0.06-0.28,0.09c-0.41,0.13-0.83,0.27-1.24,0.42c-0.03,0.01-0.06,0.02-0.09,0.03    c-0.38,0.14-0.75,0.29-1.13,0.44c-0.41,0.17-0.81,0.34-1.22,0.52c-0.41,0.19-0.82,0.39-1.23,0.59c-0.34,0.17-0.68,0.35-1.02,0.53    c-0.02,0.01-0.03,0.02-0.05,0.03c-0.34,0.19-0.68,0.38-1.01,0.58c-0.37,0.22-0.74,0.44-1.1,0.67c-0.02,0.02-0.04,0.03-0.06,0.04    c-0.38,0.25-0.75,0.49-1.12,0.75c-0.3,0.21-0.59,0.42-0.88,0.64c-0.07,0.05-0.14,0.11-0.21,0.16c-0.32,0.24-0.64,0.49-0.96,0.75    c-0.36,0.3-0.71,0.6-1.06,0.9c-0.02,0.02-0.05,0.04-0.07,0.06c-0.03,0.03-0.05,0.05-0.08,0.08c-0.24,0.21-0.48,0.43-0.72,0.66    c-0.02,0.03-0.05,0.05-0.08,0.07c-0.28,0.28-0.56,0.55-0.83,0.83c-0.31,0.32-0.61,0.64-0.91,0.96c-0.28,0.31-0.55,0.62-0.82,0.94    c-0.27,0.32-0.53,0.64-0.79,0.96c0,0.01-0.01,0.02-0.02,0.03c-0.26,0.34-0.52,0.68-0.77,1.03c-0.13,0.17-0.26,0.35-0.38,0.53    c-0.12,0.17-0.24,0.35-0.36,0.53c-0.22,0.33-0.44,0.66-0.64,0.99c-0.25,0.4-0.5,0.81-0.72,1.21c-0.22,0.38-0.42,0.75-0.62,1.13    c-0.04,0.08-0.08,0.16-0.13,0.24c-0.11,0.23-0.22,0.46-0.33,0.69c-0.05,0.1-0.09,0.19-0.13,0.28c-0.18,0.38-0.36,0.76-0.52,1.14    c-0.01,0.04-0.03,0.07-0.05,0.11c-0.15,0.36-0.3,0.73-0.44,1.1c-0.16,0.42-0.31,0.85-0.46,1.28c-0.19,0.55-0.36,1.1-0.52,1.67    c-0.11,0.39-0.21,0.77-0.3,1.17c-0.01,0.03-0.02,0.07-0.03,0.1c-0.03,0.13-0.06,0.26-0.09,0.39c-0.06,0.23-0.1,0.46-0.15,0.69    c-0.05,0.23-0.09,0.46-0.14,0.7c-0.07,0.37-0.13,0.74-0.19,1.11c-0.01,0.06-0.02,0.11-0.02,0.17c-0.04,0.2-0.06,0.4-0.09,0.6    c-0.06,0.46-0.11,0.91-0.15,1.37c0,0.04-0.01,0.08-0.01,0.12c-0.04,0.41-0.06,0.82-0.08,1.24c-0.01,0.1-0.02,0.21-0.01,0.31    c-0.02,0.24-0.02,0.49-0.03,0.74c-0.01,0.24-0.01,0.48-0.01,0.73c0,0.17,0,0.34,0.01,0.51v0.15c0,0.12,0,0.24,0.01,0.35    c0,0.26,0.01,0.52,0.03,0.77c0.01,0.28,0.03,0.56,0.05,0.83c0.04,0.45,0.08,0.9,0.13,1.34c0.05,0.45,0.11,0.89,0.17,1.33    c0.07,0.41,0.13,0.83,0.21,1.24c0,0.02,0.01,0.03,0.01,0.05c0,0.01,0,0.02,0.01,0.03c0.08,0.41,0.17,0.82,0.26,1.23    c0,0.01,0.01,0.02,0.01,0.03c0.1,0.43,0.2,0.85,0.32,1.27c0.06,0.25,0.13,0.5,0.21,0.75c0.16,0.53,0.33,1.06,0.51,1.58    c0.09,0.26,0.18,0.51,0.28,0.76c0.09,0.25,0.18,0.49,0.28,0.73c0.21,0.52,0.43,1.04,0.67,1.55c0.2,0.43,0.4,0.86,0.62,1.28    c0.04,0.08,0.08,0.15,0.12,0.23c0.22,0.42,0.45,0.84,0.68,1.25c0.28,0.49,0.57,0.96,0.87,1.43c0.28,0.44,0.58,0.87,0.88,1.3    s0.62,0.86,0.94,1.27c0.17,0.21,0.33,0.42,0.5,0.63c0.17,0.2,0.34,0.4,0.51,0.61c0.17,0.2,0.34,0.4,0.52,0.59    c0.18,0.2,0.36,0.4,0.54,0.59c0.18,0.2,0.36,0.39,0.54,0.57c0.56,0.57,1.14,1.12,1.73,1.65c0.2,0.17,0.4,0.35,0.6,0.52    c0.2,0.17,0.4,0.34,0.61,0.51c0.2,0.16,0.41,0.33,0.62,0.49c0.22,0.17,0.44,0.34,0.66,0.5c0.2,0.15,0.41,0.3,0.62,0.45    c0.34,0.24,0.69,0.47,1.04,0.7c0.46,0.3,0.92,0.59,1.39,0.86c0.72,0.43,1.45,0.82,2.2,1.18c0.27,0.14,0.54,0.27,0.81,0.39    c0.28,0.13,0.55,0.25,0.83,0.37c0.24,0.11,0.49,0.21,0.74,0.31c0.5,0.2,1.01,0.39,1.52,0.57c0.16,0.06,0.32,0.11,0.49,0.17    c0.2,0.06,0.4,0.13,0.6,0.19c0.19,0.06,0.37,0.12,0.56,0.17c0.23,0.07,0.45,0.13,0.68,0.19c0.54,0.15,1.09,0.28,1.64,0.4    c0.25,0.06,0.5,0.11,0.76,0.16c0.46,0.09,0.92,0.17,1.39,0.24c0.29,0.04,0.58,0.08,0.87,0.12c0.28,0.04,0.58,0.07,0.87,0.1    c0.33,0.03,0.66,0.06,0.99,0.09c0.5,0.03,1,0.06,1.51,0.07c0.34,0.01,0.69,0.02,1.04,0.02c0.36,0,0.72-0.01,1.08-0.02    c0.24,0,0.48-0.01,0.71-0.03c0.59-0.03,1.18-0.07,1.76-0.13c0.29-0.03,0.58-0.06,0.87-0.1c0.29-0.04,0.57-0.08,0.86-0.12    c0.43-0.06,0.85-0.13,1.27-0.22c0.14-0.02,0.29-0.05,0.44-0.08c0.43-0.09,0.86-0.19,1.29-0.3c0.27-0.06,0.53-0.13,0.8-0.2    c0.32-0.09,0.64-0.18,0.96-0.28c0.11-0.03,0.23-0.07,0.34-0.1c0.23-0.07,0.45-0.14,0.68-0.22c0.14-0.05,0.29-0.1,0.43-0.15    c0.23-0.08,0.45-0.16,0.68-0.25c0.5-0.18,1-0.39,1.5-0.6c0.36-0.15,0.72-0.31,1.08-0.49c0.02,0,0.03-0.01,0.05-0.02    c0.07-0.03,0.15-0.07,0.23-0.11c0.31-0.15,0.61-0.3,0.92-0.46c0.44-0.23,0.87-0.46,1.3-0.71h0.01c0.34-0.2,0.68-0.41,1.02-0.62    c0.34-0.21,0.67-0.42,1-0.64c0.04-0.03,0.07-0.05,0.11-0.07c0.62-0.43,1.24-0.87,1.83-1.33c0.21-0.16,0.42-0.33,0.62-0.49    c0.21-0.17,0.41-0.34,0.61-0.51c0.41-0.34,0.8-0.7,1.19-1.06s0.77-0.73,1.14-1.11c0.37-0.38,0.73-0.76,1.08-1.16    c0.18-0.2,0.35-0.39,0.52-0.59c0.09-0.1,0.18-0.2,0.26-0.31c0.08-0.1,0.16-0.2,0.25-0.3c0.17-0.2,0.33-0.41,0.49-0.62    c0.16-0.21,0.32-0.42,0.48-0.64c0.64-0.85,1.23-1.73,1.78-2.64l0.01-0.01c0.26-0.43,0.51-0.87,0.76-1.31    c0.02-0.05,0.05-0.09,0.08-0.14c0.19-0.36,0.38-0.72,0.56-1.09c0.02-0.04,0.04-0.08,0.06-0.12c0.04-0.09,0.09-0.19,0.14-0.29    c0.2-0.43,0.4-0.86,0.59-1.3c0.01,0,0.01-0.01,0.01-0.02c0.11-0.24,0.21-0.49,0.31-0.74c0.1-0.24,0.2-0.5,0.29-0.75    c0.38-1.01,0.72-2.04,1-3.09c0.14-0.52,0.27-1.05,0.39-1.59c0.09-0.4,0.17-0.81,0.25-1.21c0.07-0.41,0.14-0.82,0.2-1.23    c0.04-0.27,0.08-0.55,0.11-0.82c0.07-0.55,0.13-1.11,0.17-1.67c0.02-0.27,0.04-0.55,0.05-0.83c0.02-0.25,0.03-0.51,0.03-0.77    c0.01-0.16,0.01-0.33,0.01-0.5c0.01-0.17,0.01-0.34,0.01-0.51C126.65,385.37,126.65,385.13,126.64,384.89z"/>
	</g>
</g>
<g>
	<g>
		<path d="M332.67,384.89c0-0.25-0.01-0.5-0.03-0.74c0-0.1,0-0.21-0.01-0.31c-0.02-0.42-0.04-0.83-0.08-1.24    c0-0.04-0.01-0.08-0.01-0.12c-0.04-0.46-0.09-0.91-0.15-1.37c-0.03-0.2-0.06-0.4-0.09-0.6c0-0.06-0.01-0.11-0.02-0.17    c-0.06-0.37-0.12-0.74-0.19-1.11c-0.1-0.52-0.21-1.03-0.33-1.54c-0.11-0.51-0.25-1.01-0.39-1.51c0-0.02-0.01-0.04-0.01-0.05    c-0.28-0.98-0.6-1.95-0.97-2.9c0,0,0,0,0-0.01c-0.04-0.1-0.08-0.21-0.12-0.31c-0.12-0.3-0.24-0.6-0.37-0.9    c-0.13-0.32-0.28-0.63-0.42-0.95c-0.01-0.01-0.01-0.03-0.02-0.04c-0.07-0.14-0.13-0.28-0.2-0.42c-0.15-0.31-0.31-0.63-0.47-0.94    c-0.2-0.38-0.41-0.76-0.62-1.13c-0.21-0.38-0.43-0.75-0.66-1.11c-0.11-0.18-0.21-0.35-0.33-0.53c-0.11-0.17-0.22-0.34-0.34-0.52    c-0.18-0.27-0.37-0.54-0.56-0.81l-0.24-0.33c-0.24-0.33-0.48-0.66-0.74-0.98c0-0.01-0.01-0.02-0.02-0.03    c-0.26-0.33-0.52-0.65-0.79-0.96c-0.27-0.32-0.54-0.63-0.82-0.94c-0.3-0.33-0.6-0.65-0.91-0.96c-0.27-0.28-0.55-0.56-0.83-0.83    c-0.03-0.02-0.06-0.05-0.08-0.07c-0.24-0.23-0.48-0.45-0.72-0.66c-0.03-0.03-0.05-0.06-0.08-0.08c-0.02-0.02-0.05-0.04-0.07-0.06    c-0.35-0.31-0.7-0.61-1.06-0.9c-0.32-0.26-0.64-0.51-0.96-0.75c-0.07-0.06-0.14-0.11-0.21-0.16c-0.29-0.22-0.58-0.43-0.88-0.64    c-0.74-0.52-1.5-1.01-2.28-1.46c-0.33-0.2-0.67-0.39-1.01-0.58c-0.02-0.01-0.03-0.02-0.05-0.03c-0.34-0.18-0.68-0.36-1.02-0.53    c-0.41-0.2-0.82-0.4-1.23-0.59c-0.41-0.18-0.81-0.35-1.22-0.52c-0.37-0.15-0.75-0.3-1.13-0.44c-0.03-0.01-0.06-0.02-0.09-0.03    c-0.41-0.15-0.82-0.29-1.24-0.42c-0.09-0.03-0.19-0.06-0.28-0.09c-0.32-0.1-0.65-0.2-0.98-0.29c-0.37-0.1-0.73-0.2-1.1-0.28    c-0.14-0.04-0.27-0.07-0.4-0.1c-0.18-0.04-0.36-0.08-0.54-0.12c-0.18-0.04-0.36-0.08-0.54-0.11c-0.36-0.08-0.73-0.14-1.09-0.2    c-0.58-0.09-1.16-0.18-1.74-0.24c-0.39-0.04-0.78-0.08-1.18-0.11c-0.32-0.03-0.64-0.05-0.96-0.06c-0.16-0.01-0.33-0.02-0.49-0.02    c-0.43-0.02-0.86-0.03-1.29-0.03c-0.43,0-0.86,0.01-1.29,0.03c-0.16,0-0.33,0.01-0.49,0.02c-0.25,0.01-0.5,0.02-0.74,0.04    c-0.08,0.01-0.15,0.01-0.22,0.02c-0.38,0.03-0.76,0.06-1.13,0.11c-0.3,0.03-0.6,0.07-0.9,0.11s-0.6,0.08-0.89,0.13    c-0.37,0.06-0.73,0.12-1.09,0.2c-0.18,0.03-0.36,0.07-0.54,0.11c-0.18,0.04-0.36,0.08-0.54,0.12c-0.13,0.03-0.27,0.06-0.4,0.1    c-0.37,0.08-0.74,0.18-1.1,0.28c-0.33,0.09-0.66,0.19-0.98,0.29c-0.1,0.03-0.19,0.06-0.28,0.09c-0.38,0.12-0.74,0.24-1.11,0.37    c-0.46,0.17-0.92,0.34-1.38,0.53c-0.03,0.01-0.05,0.02-0.08,0.04c-0.34,0.13-0.69,0.28-1.03,0.44c-0.28,0.12-0.56,0.25-0.84,0.39    c-0.25,0.12-0.5,0.24-0.75,0.37c-0.27,0.14-0.54,0.28-0.8,0.42c-0.34,0.19-0.68,0.38-1.01,0.58c-0.29,0.17-0.58,0.35-0.87,0.53    c-0.28,0.18-0.57,0.36-0.85,0.55c-0.03,0.02-0.05,0.04-0.08,0.05c-0.25,0.18-0.5,0.35-0.75,0.53c-0.28,0.19-0.55,0.4-0.82,0.6    c-0.32,0.24-0.64,0.49-0.96,0.75c-0.35,0.29-0.69,0.59-1.03,0.89c-0.33,0.29-0.65,0.58-0.97,0.88c-0.01,0.01-0.02,0.02-0.03,0.03    c-0.27,0.26-0.54,0.53-0.81,0.8c-0.31,0.32-0.61,0.64-0.91,0.96c-0.28,0.31-0.55,0.62-0.82,0.94s-0.53,0.64-0.79,0.96    c0,0.01-0.01,0.02-0.02,0.03c-0.26,0.34-0.52,0.68-0.77,1.03c-0.13,0.17-0.26,0.35-0.38,0.53c-0.12,0.17-0.24,0.35-0.36,0.53    c-0.22,0.33-0.44,0.66-0.64,0.99c-0.25,0.4-0.5,0.81-0.72,1.21c-0.22,0.38-0.42,0.75-0.62,1.13c-0.04,0.08-0.08,0.16-0.13,0.24    c-0.11,0.23-0.22,0.46-0.33,0.69c-0.05,0.1-0.09,0.19-0.13,0.28c-0.18,0.38-0.36,0.76-0.52,1.14c-0.01,0.04-0.03,0.07-0.05,0.11    c-0.15,0.36-0.3,0.73-0.44,1.1c-0.16,0.42-0.31,0.85-0.46,1.28c-0.19,0.55-0.36,1.1-0.52,1.67c-0.11,0.39-0.21,0.77-0.3,1.17    c-0.01,0.03-0.02,0.07-0.03,0.1c-0.03,0.13-0.06,0.26-0.09,0.39c-0.06,0.23-0.1,0.46-0.15,0.69c-0.05,0.23-0.09,0.46-0.14,0.7    c-0.07,0.37-0.13,0.74-0.19,1.11c-0.01,0.06-0.02,0.11-0.02,0.17c-0.04,0.2-0.06,0.4-0.09,0.6c-0.06,0.46-0.11,0.91-0.15,1.37    c0,0.04-0.01,0.08-0.01,0.12c-0.04,0.41-0.06,0.82-0.08,1.24c-0.01,0.1-0.02,0.21-0.01,0.31c-0.02,0.24-0.02,0.49-0.03,0.74    c-0.01,0.24-0.01,0.48-0.01,0.73c0,0.17,0,0.34,0.01,0.51v0.15c0,0.12,0,0.24,0.01,0.35c0,0.26,0.01,0.52,0.03,0.77    c0.01,0.28,0.03,0.56,0.05,0.83c0.04,0.45,0.08,0.9,0.13,1.34c0.05,0.45,0.11,0.89,0.17,1.33c0.07,0.41,0.13,0.83,0.21,1.24    c0,0.02,0.01,0.03,0.01,0.05c0,0.01,0,0.02,0.01,0.03c0.08,0.41,0.17,0.82,0.26,1.23c0,0.01,0.01,0.02,0.01,0.03    c0.1,0.43,0.2,0.85,0.32,1.27c0.06,0.25,0.13,0.5,0.21,0.75c0.16,0.53,0.33,1.06,0.51,1.58c0.09,0.26,0.18,0.51,0.28,0.76    c0.09,0.25,0.18,0.49,0.28,0.73c0.21,0.52,0.43,1.04,0.67,1.55c0.2,0.43,0.4,0.86,0.62,1.28c0.04,0.08,0.08,0.15,0.12,0.23    c0.22,0.42,0.45,0.84,0.68,1.25c0.28,0.49,0.57,0.96,0.87,1.43c0.28,0.44,0.58,0.87,0.88,1.3c0.16,0.22,0.31,0.43,0.47,0.64    c0.15,0.22,0.31,0.42,0.47,0.63c0.17,0.21,0.33,0.42,0.5,0.63c0.17,0.2,0.34,0.4,0.51,0.61c0.17,0.2,0.35,0.4,0.52,0.59    c0.18,0.2,0.36,0.4,0.54,0.59c0.18,0.2,0.36,0.39,0.54,0.57c0.19,0.19,0.38,0.38,0.57,0.56c0.19,0.19,0.38,0.37,0.57,0.55    c0.39,0.36,0.78,0.72,1.19,1.06c0.2,0.17,0.4,0.34,0.61,0.51c0.2,0.16,0.41,0.33,0.62,0.49c0.31,0.24,0.63,0.48,0.95,0.71    c0.29,0.21,0.58,0.42,0.88,0.62c0.35,0.24,0.7,0.46,1.06,0.68c0.35,0.22,0.71,0.44,1.07,0.65h0.01c0.34,0.2,0.69,0.39,1.05,0.58    c0.35,0.19,0.71,0.37,1.07,0.54c0.03,0.02,0.07,0.04,0.1,0.05c0.33,0.16,0.66,0.31,0.99,0.46c0.37,0.16,0.75,0.32,1.12,0.47    c0.25,0.1,0.5,0.2,0.75,0.29c0.23,0.09,0.45,0.17,0.68,0.25c0.57,0.2,1.15,0.39,1.74,0.56c0.22,0.07,0.45,0.13,0.68,0.19    c0.54,0.15,1.08,0.28,1.64,0.4c0.25,0.06,0.5,0.11,0.76,0.16c0.45,0.09,0.92,0.17,1.39,0.24c0.29,0.04,0.58,0.09,0.87,0.12    c0.29,0.04,0.58,0.07,0.87,0.1c0.33,0.03,0.66,0.06,0.99,0.09c0.5,0.03,1,0.06,1.51,0.07c0.34,0.01,0.69,0.02,1.04,0.02    c0.35,0,0.7-0.01,1.04-0.02c0.51-0.01,1.01-0.04,1.51-0.07c0.33-0.03,0.66-0.06,0.99-0.09c0.29-0.03,0.59-0.06,0.87-0.1    c0.29-0.04,0.58-0.08,0.87-0.12c0.47-0.07,0.93-0.15,1.39-0.24c0.26-0.05,0.51-0.1,0.76-0.16c0.55-0.12,1.1-0.25,1.64-0.4    c0.23-0.06,0.45-0.12,0.68-0.19c0.19-0.05,0.38-0.11,0.56-0.17c0.2-0.06,0.4-0.13,0.6-0.19c0.17-0.06,0.33-0.11,0.49-0.17    c0.51-0.18,1.02-0.37,1.52-0.57c0.25-0.1,0.5-0.2,0.74-0.31c0.28-0.12,0.55-0.24,0.83-0.37c0.27-0.12,0.54-0.25,0.81-0.39    c0.4-0.2,0.79-0.4,1.19-0.61c0.01,0,0.02-0.01,0.03-0.01c0.38-0.21,0.75-0.43,1.12-0.65c0.35-0.2,0.7-0.41,1.04-0.63    c0.04-0.03,0.08-0.05,0.12-0.08c0.38-0.24,0.76-0.5,1.13-0.76c0.21-0.15,0.42-0.3,0.62-0.45c0.22-0.16,0.45-0.33,0.66-0.5    c0.21-0.16,0.42-0.33,0.62-0.49c0.21-0.17,0.41-0.34,0.61-0.51c0.21-0.17,0.41-0.35,0.6-0.52c0.6-0.53,1.18-1.08,1.73-1.65    c0.7-0.7,1.36-1.44,1.99-2.21c0.21-0.26,0.42-0.52,0.62-0.78c0.08-0.1,0.16-0.21,0.24-0.31c0.08-0.11,0.16-0.22,0.24-0.32    c0.2-0.26,0.39-0.52,0.57-0.79c0.27-0.38,0.53-0.76,0.78-1.15c0.27-0.42,0.53-0.86,0.78-1.29c0.07-0.13,0.15-0.25,0.22-0.38    c0.02-0.03,0.04-0.07,0.06-0.1c0.15-0.28,0.3-0.56,0.45-0.85c0.1-0.19,0.2-0.38,0.3-0.58c0.13-0.26,0.26-0.52,0.38-0.78    c0.19-0.4,0.37-0.81,0.55-1.22c0.02-0.06,0.05-0.11,0.07-0.17c0.08-0.2,0.17-0.41,0.24-0.61c0.07-0.16,0.13-0.32,0.19-0.49    c0.1-0.25,0.19-0.5,0.28-0.76c0.13-0.38,0.26-0.77,0.38-1.15c0.13-0.42,0.25-0.84,0.36-1.26c0.11-0.4,0.21-0.81,0.31-1.22v-0.01    c0.05-0.2,0.09-0.4,0.14-0.61c0.04-0.2,0.08-0.4,0.12-0.61c0.01-0.01,0.01-0.02,0.01-0.03c0-0.02,0.01-0.04,0.01-0.06    c0.04-0.19,0.07-0.39,0.1-0.58c0.04-0.22,0.07-0.43,0.11-0.65c0.06-0.44,0.12-0.88,0.17-1.33c0.05-0.44,0.09-0.89,0.13-1.34    c0.02-0.27,0.04-0.55,0.05-0.83c0.02-0.25,0.03-0.51,0.03-0.77c0.01-0.11,0.01-0.23,0.01-0.35v-0.15    c0.01-0.17,0.01-0.34,0.01-0.51C332.68,385.37,332.68,385.13,332.67,384.89z"/>
	</g>
</g>
<g>
	<g>
		<path d="M453.24,384.89c0-0.25-0.01-0.5-0.03-0.74c0.01-0.1,0-0.21-0.01-0.31c-0.02-0.42-0.04-0.83-0.08-1.24    c0-0.04-0.01-0.08-0.01-0.12c-0.04-0.46-0.09-0.91-0.15-1.37c-0.03-0.2-0.05-0.4-0.09-0.6c0-0.06-0.01-0.11-0.02-0.17    c-0.06-0.37-0.12-0.74-0.19-1.11c-0.04-0.24-0.09-0.47-0.14-0.7c-0.04-0.23-0.1-0.46-0.15-0.69c-0.03-0.13-0.06-0.26-0.09-0.39    c-0.01-0.03-0.02-0.07-0.03-0.1c-0.09-0.4-0.19-0.78-0.3-1.17c-0.16-0.57-0.33-1.12-0.52-1.67c-0.15-0.43-0.3-0.86-0.46-1.28    c-0.14-0.37-0.29-0.74-0.44-1.1c-0.13-0.31-0.27-0.61-0.41-0.91c-0.09-0.21-0.18-0.41-0.29-0.62c-0.15-0.31-0.3-0.62-0.46-0.93    c-0.2-0.38-0.4-0.75-0.62-1.13c-0.17-0.3-0.35-0.6-0.52-0.89c-0.03-0.04-0.05-0.08-0.07-0.12c-0.18-0.29-0.36-0.58-0.55-0.86    c-0.2-0.3-0.4-0.6-0.61-0.9c-0.21-0.3-0.42-0.6-0.64-0.89c-0.2-0.28-0.42-0.55-0.63-0.82c-0.21-0.27-0.43-0.53-0.66-0.8    c-0.27-0.32-0.54-0.63-0.82-0.94c-0.3-0.32-0.6-0.64-0.91-0.96c-0.13-0.14-0.27-0.27-0.4-0.4c-0.14-0.14-0.27-0.27-0.41-0.4    c-0.01-0.01-0.02-0.02-0.03-0.03c-0.32-0.3-0.64-0.59-0.97-0.88c-0.34-0.3-0.68-0.6-1.03-0.89c-0.32-0.26-0.64-0.51-0.96-0.75    c-0.27-0.2-0.54-0.41-0.82-0.6c-0.25-0.18-0.5-0.35-0.75-0.53c-0.03-0.01-0.05-0.03-0.08-0.05c-0.28-0.19-0.57-0.37-0.85-0.55    c-0.29-0.18-0.58-0.36-0.87-0.53c-0.33-0.2-0.67-0.39-1.01-0.58c-0.02-0.01-0.03-0.02-0.05-0.03c-0.32-0.17-0.64-0.34-0.96-0.5    c-0.43-0.21-0.86-0.42-1.3-0.62c-0.4-0.18-0.81-0.35-1.21-0.52c-0.38-0.15-0.76-0.3-1.14-0.44c-0.53-0.19-1.07-0.37-1.61-0.54    c-0.32-0.1-0.65-0.2-0.98-0.29c-0.36-0.11-0.74-0.2-1.11-0.29c-0.02,0-0.03-0.01-0.05-0.01c-0.11-0.03-0.23-0.06-0.34-0.08    c-0.18-0.04-0.36-0.08-0.54-0.12c-0.18-0.04-0.36-0.08-0.54-0.11c-0.36-0.08-0.72-0.14-1.09-0.2c-0.03,0-0.05-0.01-0.08-0.01    c-0.24-0.04-0.5-0.08-0.75-0.11c-0.25-0.04-0.5-0.07-0.75-0.1c-0.05-0.01-0.1-0.01-0.15-0.02c-0.39-0.04-0.79-0.08-1.19-0.11    c-0.31-0.03-0.63-0.05-0.95-0.06c-0.16-0.01-0.32-0.02-0.48-0.02c-0.44-0.02-0.87-0.03-1.31-0.03c-0.43,0-0.86,0.01-1.29,0.03    c-0.16,0-0.33,0.01-0.49,0.02c-0.32,0.01-0.64,0.03-0.96,0.06c-0.4,0.03-0.79,0.07-1.18,0.11c-0.17,0.02-0.33,0.04-0.49,0.06    c-0.23,0.03-0.45,0.06-0.67,0.09c-0.17,0.03-0.33,0.05-0.49,0.08c-0.38,0.06-0.76,0.13-1.14,0.2c-0.37,0.08-0.75,0.16-1.12,0.24    c-0.09,0.02-0.17,0.04-0.25,0.06h-0.01c-0.05,0.01-0.1,0.02-0.15,0.04c-0.36,0.08-0.72,0.18-1.08,0.28    c-0.33,0.09-0.66,0.19-0.99,0.29c-0.09,0.03-0.18,0.06-0.28,0.09c-0.41,0.13-0.83,0.27-1.24,0.42c-0.03,0.01-0.06,0.02-0.09,0.03    c-0.38,0.14-0.75,0.29-1.13,0.44c-0.41,0.17-0.81,0.34-1.22,0.52c-0.41,0.19-0.82,0.39-1.23,0.59c-0.34,0.17-0.68,0.35-1.02,0.53    c-0.02,0.01-0.03,0.02-0.05,0.03c-0.34,0.19-0.68,0.38-1.01,0.58c-0.37,0.22-0.74,0.44-1.1,0.67c-0.02,0.02-0.04,0.03-0.06,0.04    c-0.38,0.25-0.75,0.49-1.12,0.75c-0.3,0.21-0.59,0.42-0.88,0.64c-0.07,0.05-0.14,0.11-0.21,0.16c-0.32,0.24-0.64,0.49-0.96,0.75    c-0.36,0.3-0.71,0.6-1.06,0.9c-0.02,0.02-0.05,0.04-0.07,0.06c-0.03,0.03-0.05,0.05-0.08,0.08c-0.24,0.21-0.48,0.43-0.72,0.66    c-0.02,0.03-0.05,0.05-0.08,0.07c-0.28,0.28-0.56,0.55-0.83,0.83c-0.31,0.32-0.61,0.64-0.91,0.96c-0.28,0.31-0.55,0.62-0.82,0.94    c-0.27,0.32-0.53,0.64-0.79,0.96c0,0.01-0.01,0.02-0.02,0.03c-0.26,0.34-0.52,0.68-0.77,1.03c-0.13,0.17-0.26,0.35-0.38,0.53    c-0.12,0.17-0.24,0.35-0.36,0.53c-0.22,0.33-0.44,0.66-0.64,0.99c-0.25,0.4-0.5,0.81-0.72,1.21c-0.22,0.38-0.42,0.75-0.62,1.13    c-0.04,0.08-0.08,0.16-0.13,0.24c-0.11,0.23-0.22,0.46-0.33,0.69c-0.05,0.1-0.09,0.19-0.13,0.28c-0.18,0.38-0.36,0.76-0.52,1.14    c-0.01,0.04-0.03,0.07-0.05,0.11c-0.15,0.36-0.3,0.73-0.44,1.1c-0.16,0.42-0.31,0.85-0.46,1.28c-0.19,0.55-0.36,1.1-0.52,1.67    c-0.11,0.39-0.21,0.77-0.3,1.17c-0.01,0.03-0.02,0.07-0.03,0.1c-0.03,0.13-0.06,0.26-0.09,0.39c-0.06,0.23-0.1,0.46-0.15,0.69    c-0.05,0.23-0.09,0.46-0.14,0.7c-0.07,0.37-0.13,0.74-0.19,1.11c-0.01,0.06-0.02,0.11-0.02,0.17c-0.04,0.2-0.06,0.4-0.09,0.6    c-0.06,0.46-0.11,0.91-0.15,1.37c0,0.04-0.01,0.08-0.01,0.12c-0.04,0.41-0.06,0.82-0.08,1.24c-0.01,0.1-0.02,0.21-0.01,0.31    c-0.02,0.24-0.02,0.49-0.03,0.74c-0.01,0.24-0.01,0.48-0.01,0.73c0,0.17,0,0.34,0.01,0.51v0.15c0,0.12,0,0.24,0.01,0.35    c0,0.26,0.01,0.52,0.03,0.77c0.01,0.28,0.03,0.56,0.05,0.83c0.04,0.45,0.08,0.9,0.13,1.34c0.05,0.45,0.11,0.89,0.17,1.33    c0.07,0.41,0.13,0.83,0.21,1.24c0,0.02,0.01,0.03,0.01,0.05c0,0.01,0,0.02,0.01,0.03c0.08,0.41,0.17,0.82,0.26,1.23    c0,0.01,0.01,0.02,0.01,0.03c0.1,0.43,0.2,0.85,0.32,1.27c0.06,0.25,0.13,0.5,0.21,0.75c0.16,0.53,0.33,1.06,0.51,1.58    c0.09,0.26,0.18,0.51,0.28,0.76c0.09,0.25,0.18,0.49,0.28,0.73c0.21,0.52,0.43,1.04,0.67,1.55c0.2,0.43,0.4,0.86,0.62,1.28    c0.04,0.08,0.08,0.15,0.12,0.23c0.22,0.42,0.45,0.84,0.68,1.25c0.28,0.49,0.57,0.96,0.87,1.43c0.28,0.44,0.58,0.87,0.88,1.3    c0.3,0.43,0.62,0.86,0.94,1.27c0.17,0.21,0.33,0.42,0.5,0.63c0.17,0.2,0.34,0.4,0.51,0.61c0.17,0.2,0.34,0.4,0.52,0.59    c0.18,0.2,0.36,0.4,0.54,0.59c0.18,0.2,0.36,0.39,0.54,0.57c0.56,0.57,1.14,1.12,1.73,1.65c0.2,0.17,0.4,0.35,0.6,0.52    c0.2,0.17,0.4,0.34,0.61,0.51c0.2,0.16,0.41,0.33,0.62,0.49c0.22,0.17,0.44,0.34,0.66,0.5c0.2,0.15,0.41,0.3,0.62,0.45    c0.34,0.24,0.69,0.47,1.04,0.7c0.46,0.3,0.92,0.59,1.39,0.86c0.72,0.43,1.45,0.82,2.2,1.18c0.27,0.14,0.54,0.27,0.81,0.39    c0.28,0.13,0.55,0.25,0.83,0.37c0.24,0.11,0.49,0.21,0.74,0.31c0.5,0.2,1.01,0.39,1.52,0.57c0.16,0.06,0.32,0.11,0.49,0.17    c0.2,0.06,0.4,0.13,0.6,0.19c0.19,0.06,0.37,0.12,0.56,0.17c0.23,0.07,0.45,0.13,0.68,0.19c0.54,0.15,1.09,0.28,1.64,0.4    c0.25,0.06,0.5,0.11,0.76,0.16c0.46,0.09,0.92,0.17,1.39,0.24c0.29,0.04,0.58,0.08,0.87,0.12c0.28,0.04,0.58,0.07,0.87,0.1    c0.33,0.03,0.66,0.06,0.99,0.09c0.5,0.03,1,0.06,1.51,0.07c0.34,0.01,0.69,0.02,1.04,0.02c0.36,0,0.72-0.01,1.08-0.02    c0.24,0,0.48-0.01,0.71-0.03c0.59-0.03,1.18-0.07,1.76-0.13c0.29-0.03,0.58-0.06,0.87-0.1c0.29-0.04,0.57-0.08,0.86-0.12    c0.43-0.06,0.85-0.13,1.27-0.22c0.14-0.02,0.29-0.05,0.44-0.08c0.43-0.09,0.86-0.19,1.29-0.3c0.27-0.06,0.53-0.13,0.8-0.2    c0.32-0.09,0.64-0.18,0.96-0.28c0.11-0.03,0.23-0.07,0.34-0.1c0.23-0.07,0.45-0.14,0.68-0.22c0.14-0.05,0.29-0.1,0.43-0.15    c0.23-0.08,0.45-0.16,0.68-0.25c0.5-0.18,1-0.39,1.5-0.6c0.36-0.15,0.72-0.31,1.08-0.49c0.02,0,0.03-0.01,0.05-0.02    c0.07-0.03,0.15-0.07,0.23-0.11c0.31-0.15,0.61-0.3,0.92-0.46c0.44-0.23,0.87-0.46,1.3-0.71h0.01c0.34-0.2,0.68-0.41,1.02-0.62    c0.34-0.21,0.67-0.42,1-0.64c0.04-0.03,0.07-0.05,0.11-0.07c0.62-0.43,1.24-0.87,1.83-1.33c0.21-0.16,0.42-0.33,0.62-0.49    c0.21-0.17,0.41-0.34,0.61-0.51c0.41-0.34,0.8-0.7,1.19-1.06s0.77-0.73,1.14-1.11c0.37-0.38,0.73-0.76,1.08-1.16    c0.18-0.2,0.35-0.39,0.52-0.59c0.09-0.1,0.18-0.2,0.26-0.31c0.08-0.1,0.16-0.2,0.25-0.3c0.17-0.2,0.33-0.41,0.49-0.62    c0.16-0.21,0.32-0.42,0.48-0.64c0.64-0.85,1.23-1.73,1.78-2.64l0.01-0.01c0.26-0.43,0.51-0.87,0.76-1.31    c0.02-0.05,0.05-0.09,0.08-0.14c0.19-0.36,0.38-0.72,0.56-1.09c0.02-0.04,0.04-0.08,0.06-0.12c0.04-0.09,0.09-0.19,0.14-0.29    c0.2-0.43,0.4-0.86,0.59-1.3c0.01,0,0.01-0.01,0.01-0.02c0.11-0.24,0.21-0.49,0.31-0.74c0.1-0.24,0.2-0.5,0.29-0.75    c0.38-1.01,0.72-2.04,1-3.09c0.14-0.52,0.27-1.05,0.39-1.59c0.09-0.4,0.17-0.81,0.25-1.21c0.07-0.41,0.14-0.82,0.2-1.23    c0.04-0.27,0.08-0.55,0.11-0.82c0.07-0.55,0.13-1.11,0.17-1.67c0.02-0.27,0.04-0.55,0.05-0.83c0.02-0.25,0.03-0.51,0.03-0.77    c0.01-0.16,0.01-0.33,0.01-0.5c0.01-0.17,0.01-0.34,0.01-0.51C453.25,385.37,453.25,385.13,453.24,384.89z"/>
	</g>
</g>
<g>
	<g>
		<path d="M60.02,123.21L28.78,153.3C10.55,170.85,0.07,195.41,0,220.7h81.5v-97.49H60.02z"/>
	</g>
</g>
<g>
	<g>
		<path d="M184,91.71v80.684h-18.93V123.21H111.5V250.7H0v45.53h165.07v-93.836H184v93.836h328V91.71H184z M276.04,156.9h-51.93v-30    h51.93V156.9z"/>
	</g>
</g>
<g>
</g>
<g>
</g>
<g>
</g>
<g>
</g>
<g>
</g>
<g>
</g>
<g>
</g>
<g>
</g>
<g>
</g>
<g>
</g>
<g>
</g>
<g>
</g>
<g>
</g>
<g>
</g>
<g>
</g>
</svg>
