<?xml version="1.0" encoding="iso-8859-1"?>
<!-- Generator: Adobe Illustrator 19.0.0, SVG Export Plug-In . SVG Version: 6.00 Build 0)  -->
<svg xmlns="http://www.w3.org/2000/svg" xmlns:xlink="http://www.w3.org/1999/xlink" version="1.1" id="Layer_1" x="0px" y="0px" viewBox="0 0 512 512" style="enable-background:new 0 0 512 512;" xml:space="preserve">
<g>
	<g>
		<path d="M238.076,300.876l-25.664-40.579H0l84.557,180.528h363.295L512,300.876H238.076z M289.065,378.051h-29.677v-29.677h29.677    V378.051z M346.592,378.051h-29.677v-29.677h29.677V378.051z M404.13,378.051h-29.677v-29.677h29.677V378.051z"/>
	</g>
</g>
<g>
	<g>
		<polygon points="434.106,212.717 434.106,71.176 347.075,71.176 347.075,212.717 289.281,212.717 289.281,270.079 491.89,270.079     491.89,212.717   "/>
	</g>
</g>
<g>
	<g>
		<polygon points="133.175,179.908 133.175,122.642 17.294,122.642 17.294,153.439 102.378,153.439 102.378,179.908 50.834,179.908     50.834,229.501 66.233,229.501 81.631,229.501 153.92,229.501 169.318,229.501 184.717,229.501 184.717,179.908   "/>
	</g>
</g>
<g>
</g>
<g>
</g>
<g>
</g>
<g>
</g>
<g>
</g>
<g>
</g>
<g>
</g>
<g>
</g>
<g>
</g>
<g>
</g>
<g>
</g>
<g>
</g>
<g>
</g>
<g>
</g>
<g>
</g>
</svg>
