<?xml version="1.0" encoding="iso-8859-1"?>
<!-- Generator: Adobe Illustrator 19.0.0, SVG Export Plug-In . SVG Version: 6.00 Build 0)  -->
<svg xmlns="http://www.w3.org/2000/svg" xmlns:xlink="http://www.w3.org/1999/xlink" version="1.1" id="Layer_1" x="0px" y="0px" viewBox="0 0 512 512" style="enable-background:new 0 0 512 512;" xml:space="preserve">
<g>
	<g>
		<path d="M460.43,232.81L433.8,292.9L0,292.88v0.02v29.56v59.65h70.666v25.959h-6.025c-9.956,0-18.056-8.1-18.056-18.056h-30    c0,26.498,21.558,48.056,48.056,48.056h202.088v-30h-25.396V382.11H428.38h30H512v-149.3H460.43z M211.333,408.069H100.666V382.11    h110.667V408.069z"/>
	</g>
</g>
<g>
	<g>
		<path d="M297.989,103.931v-30h-296v30H135v27.999h-35V178c-53.56,1.76-96.87,38.73-99.83,84.88h133.99v-84.95h30v84.95h115.6    l-35.21-84.95H200v-46h-35v-27.999H297.989z"/>
	</g>
</g>
<g>
</g>
<g>
</g>
<g>
</g>
<g>
</g>
<g>
</g>
<g>
</g>
<g>
</g>
<g>
</g>
<g>
</g>
<g>
</g>
<g>
</g>
<g>
</g>
<g>
</g>
<g>
</g>
<g>
</g>
</svg>
