<?xml version="1.0" encoding="iso-8859-1"?>
<!-- Generator: Adobe Illustrator 19.0.0, SVG Export Plug-In . SVG Version: 6.00 Build 0)  -->
<svg xmlns="http://www.w3.org/2000/svg" xmlns:xlink="http://www.w3.org/1999/xlink" version="1.1" id="Layer_1" x="0px" y="0px" viewBox="0 0 512 512" style="enable-background:new 0 0 512 512;" xml:space="preserve">
<g>
	<g>
		<polygon points="255.783,225.586 255.778,225.586 255.778,139.284 225.813,139.284 225.813,221.47 209.007,219.154     209.005,219.153 209.005,72.362 132.338,72.362 132.338,102.327 179.04,102.327 179.04,215.038 127.851,207.997 127.851,270.474     317.631,270.474 317.631,234.097   "/>
	</g>
</g>
<g>
	<g>
		<polygon points="482.035,306.94 482.035,333.56 379.189,304.115 379.189,435.732 482.035,407.137 482.035,433.127 512,433.127     512,306.94   "/>
	</g>
</g>
<g>
	<g>
		<path d="M349.224,300.429H69.609C31.234,300.429,0,331.653,0,370.039c0,38.375,31.234,69.599,69.609,69.599h279.615V300.439    L349.224,300.429L349.224,300.429z M76.411,385.271c-8.41,0-15.233-6.822-15.233-15.233c0-8.421,6.823-15.233,15.233-15.233    c8.42,0,15.233,6.812,15.233,15.233C91.644,378.449,84.832,385.271,76.411,385.271z M127.602,385.271    c-8.411-0.001-15.233-6.823-15.233-15.233c0-8.42,6.822-15.233,15.233-15.233c8.42,0,15.233,6.812,15.233,15.233    C142.835,378.449,136.023,385.271,127.602,385.271z M178.793,385.271c-8.411-0.001-15.233-6.823-15.233-15.233    c0-8.42,6.822-15.233,15.233-15.233c8.42,0,15.233,6.812,15.233,15.233C194.025,378.449,187.214,385.271,178.793,385.271z     M229.983,385.271c-8.41-0.001-15.233-6.823-15.233-15.233c0-8.42,6.822-15.233,15.233-15.233c8.42,0,15.233,6.812,15.233,15.233    C245.215,378.449,238.403,385.271,229.983,385.271z M281.173,385.271c-8.411-0.001-15.233-6.823-15.233-15.233    c0-8.42,6.822-15.233,15.233-15.233c8.42,0,15.233,6.812,15.233,15.233C296.406,378.449,289.594,385.271,281.173,385.271z"/>
	</g>
</g>
<g>
</g>
<g>
</g>
<g>
</g>
<g>
</g>
<g>
</g>
<g>
</g>
<g>
</g>
<g>
</g>
<g>
</g>
<g>
</g>
<g>
</g>
<g>
</g>
<g>
</g>
<g>
</g>
<g>
</g>
</svg>
