<?xml version="1.0" encoding="iso-8859-1"?>
<!-- Generator: Adobe Illustrator 19.0.0, SVG Export Plug-In . SVG Version: 6.00 Build 0)  -->
<svg xmlns="http://www.w3.org/2000/svg" xmlns:xlink="http://www.w3.org/1999/xlink" version="1.1" id="Layer_1" x="0px" y="0px" viewBox="0 0 512 512" style="enable-background:new 0 0 512 512;" xml:space="preserve">
<g>
	<g>
		<polygon points="512,256.001 464.765,211.613 502.297,148.237 453.978,114.908 369.603,185.157 336.198,185.157 353.269,131.382     401.269,131.382 401.269,101.388 362.79,101.388 369.29,80.911 418.632,80.911 418.632,50.917 378.812,50.917 384.094,34.274     308.26,34.274 225.532,143.234 0,256.001 225.532,368.766 308.26,477.726 384.094,477.726 378.572,460.328 418.632,460.328     418.632,430.335 369.05,430.335 362.55,409.857 401.269,409.857 401.269,379.864 353.029,379.864 336.198,326.843     369.603,326.843 453.978,397.092 502.297,363.764 464.765,300.387   "/>
	</g>
</g>
<g>
</g>
<g>
</g>
<g>
</g>
<g>
</g>
<g>
</g>
<g>
</g>
<g>
</g>
<g>
</g>
<g>
</g>
<g>
</g>
<g>
</g>
<g>
</g>
<g>
</g>
<g>
</g>
<g>
</g>
</svg>
