<?xml version="1.0" encoding="iso-8859-1"?>
<!-- Generator: Adobe Illustrator 19.0.0, SVG Export Plug-In . SVG Version: 6.00 Build 0)  -->
<svg xmlns="http://www.w3.org/2000/svg" xmlns:xlink="http://www.w3.org/1999/xlink" version="1.1" id="Layer_1" x="0px" y="0px" viewBox="0 0 512 512" style="enable-background:new 0 0 512 512;" xml:space="preserve">
<g>
	<g>
		<path d="M49.145,204.027c-0.898,0-1.677,0.02-2.436,0.07L32.6,204.917v36.084H0v30h32.6v36.084l14.109,0.819    c0.759,0.05,1.538,0.07,2.436,0.07h19.881V204.027H49.145z"/>
	</g>
</g>
<g>
	<g>
		<path d="M460.027,146.783l-31.843,69.397l-75.269-12.152H199.024l-0.649,0.33c-6.211,3.135-11.623,8.228-15.896,14.648    c-2.966,4.423-5.392,9.486-7.169,14.978c-2.207,6.82-3.415,14.299-3.415,22.018s1.208,15.198,3.415,22.018    c1.777,5.492,4.204,10.554,7.169,14.978c4.274,6.42,9.686,11.513,15.896,14.648l0.649,0.33h153.882l75.349-12.003l31.773,69.248    H512V146.783H460.027z"/>
	</g>
</g>
<g>
	<g>
		<path d="M156.516,204.027c7.359-11.573,17.115-20.739,28.368-26.421V43.336c0-23.725-19.231-42.957-42.946-42.957    c-23.725,0-42.956,19.232-42.956,42.957v425.33c0,11.862,4.813,22.607,12.581,30.375c7.769,7.768,18.513,12.581,30.375,12.581    c23.715,0,42.946-19.231,42.946-42.956V334.395c-11.253-5.682-21.008-14.848-28.368-26.421c-2.736-4.284-5.132-8.897-7.149-13.78    c-4.753-11.473-7.429-24.454-7.429-38.193c0-13.74,2.676-26.72,7.429-38.193C151.384,212.925,153.78,208.311,156.516,204.027z"/>
	</g>
</g>
<g>
</g>
<g>
</g>
<g>
</g>
<g>
</g>
<g>
</g>
<g>
</g>
<g>
</g>
<g>
</g>
<g>
</g>
<g>
</g>
<g>
</g>
<g>
</g>
<g>
</g>
<g>
</g>
<g>
</g>
</svg>
