<?xml version="1.0" encoding="iso-8859-1"?>
<!-- Generator: Adobe Illustrator 19.0.0, SVG Export Plug-In . SVG Version: 6.00 Build 0)  -->
<svg xmlns="http://www.w3.org/2000/svg" xmlns:xlink="http://www.w3.org/1999/xlink" version="1.1" id="Layer_1" x="0px" y="0px" viewBox="0 0 512 512" style="enable-background:new 0 0 512 512;" xml:space="preserve">
<g>
	<g>
		<polygon points="512,280.251 512,232.346 500.258,230.087 500.253,230.086 509.249,116.869 455.073,116.869 410.139,212.792     380.326,207.07 380.326,304.791 409.366,299.379 455.073,396.953 509.249,396.953 500.152,282.461 500.158,282.46   "/>
	</g>
</g>
<g>
	<g>
		<polygon points="246.163,1.249 159.936,149.562 108.229,149.562 108.229,187.914 298.387,187.914 318.877,1.249   "/>
	</g>
</g>
<g>
	<g>
		<path d="M36.491,217.768C16.34,217.768,0,234.107,0,254.268v3.463c0,20.161,16.34,36.501,36.491,36.501h313.981v-76.464H36.491z"/>
	</g>
</g>
<g>
	<g>
		<polygon points="298.387,324.086 108.229,324.086 108.229,362.438 159.936,362.438 246.163,510.751 318.877,510.751   "/>
	</g>
</g>
<g>
</g>
<g>
</g>
<g>
</g>
<g>
</g>
<g>
</g>
<g>
</g>
<g>
</g>
<g>
</g>
<g>
</g>
<g>
</g>
<g>
</g>
<g>
</g>
<g>
</g>
<g>
</g>
<g>
</g>
</svg>
