<?xml version="1.0" encoding="iso-8859-1"?>
<!-- Generator: Adobe Illustrator 19.0.0, SVG Export Plug-In . SVG Version: 6.00 Build 0)  -->
<svg xmlns="http://www.w3.org/2000/svg" xmlns:xlink="http://www.w3.org/1999/xlink" version="1.1" id="Layer_1" x="0px" y="0px" viewBox="0 0 512 512" style="enable-background:new 0 0 512 512;" xml:space="preserve">
<g>
	<g>
		<path d="M510.504,207.371c-3.321-12.716-11.929-23.454-23.619-29.463L277.153,70.113c-13.246-6.809-29.06-6.807-42.307,0    L25.114,177.907c-11.688,6.008-20.297,16.746-23.619,29.463c-3.264,12.494-1.129,25.816,5.833,36.671h497.344    C511.633,233.188,513.769,219.865,510.504,207.371z M277.028,223.813l-21.026-11.055l-21.026,11.055l4.015-23.414l-17.011-16.582    l23.507-3.416L256,159.098l10.514,21.303l23.509,3.416l-17.011,16.582L277.028,223.813z"/>
	</g>
</g>
<g>
	<g>
		<path d="M8.285,336.046v37.147l2.234,3.628c1.236,2.006,13.146,20.098,50.117,37.262c47.04,21.837,112.769,32.91,195.363,32.91    s148.325-11.073,195.363-32.91c36.971-17.163,48.881-35.256,50.117-37.262l2.234-3.628v-37.147H8.285z"/>
	</g>
</g>
<g>
	<g>
		<rect x="22.253" y="274.115" width="467.489" height="31.863"/>
	</g>
</g>
<g>
</g>
<g>
</g>
<g>
</g>
<g>
</g>
<g>
</g>
<g>
</g>
<g>
</g>
<g>
</g>
<g>
</g>
<g>
</g>
<g>
</g>
<g>
</g>
<g>
</g>
<g>
</g>
<g>
</g>
</svg>
