<?xml version="1.0" encoding="iso-8859-1"?>
<!-- Generator: Adobe Illustrator 19.0.0, SVG Export Plug-In . SVG Version: 6.00 Build 0)  -->
<svg xmlns="http://www.w3.org/2000/svg" xmlns:xlink="http://www.w3.org/1999/xlink" version="1.1" id="Layer_1" x="0px" y="0px" viewBox="0 0 512 512" style="enable-background:new 0 0 512 512;" xml:space="preserve">
<g>
	<g>
		<path d="M502.302,20.09L496.87,0l-17.228,11.402c-1.165,0.69-26.749,15.474-52.5,13.421    c-33.874-2.729-52.121,25.483-57.038,40.768l-10.518,42.517l56.317,56.317l27.224-10.268    c22.071-8.326,40.026-24.114,50.555-44.458C515.015,68.485,502.831,22.046,502.302,20.09z"/>
	</g>
</g>
<g>
	<g>
		<polygon points="375.333,163.663 388.073,150.923 366.834,129.684 354.094,142.424 335.361,123.692 296.352,162.7     355.239,221.221 394.065,182.395   "/>
	</g>
</g>
<g>
	<g>
		<polygon points="53.167,351.86 5.758,399.27 118.487,512 166.199,464.287   "/>
	</g>
</g>
<g>
	<g>
		<path d="M334,242.46l-58.886-58.521l-35.29,35.289c-7.73-4.232-16.444-6.479-25.502-6.479c-14.216,0-27.58,5.535-37.632,15.588    L74.406,330.621l113.033,112.428L289.42,341.068c17.065-17.065,20.096-42.929,9.094-63.121L334,242.46z"/>
	</g>
</g>
<g>
</g>
<g>
</g>
<g>
</g>
<g>
</g>
<g>
</g>
<g>
</g>
<g>
</g>
<g>
</g>
<g>
</g>
<g>
</g>
<g>
</g>
<g>
</g>
<g>
</g>
<g>
</g>
<g>
</g>
</svg>
