<?xml version="1.0" encoding="iso-8859-1"?>
<!-- Generator: Adobe Illustrator 19.0.0, SVG Export Plug-In . SVG Version: 6.00 Build 0)  -->
<svg xmlns="http://www.w3.org/2000/svg" xmlns:xlink="http://www.w3.org/1999/xlink" version="1.1" id="Layer_1" x="0px" y="0px" viewBox="0 0 512 512" style="enable-background:new 0 0 512 512;" xml:space="preserve">
<g>
	<g>
		<polygon points="95.521,171.682 95.521,184.845 78.017,184.845 78.017,326.515 95.521,326.515 95.521,340.318 315.328,340.318     315.328,171.682   "/>
	</g>
</g>
<g>
	<g>
		<rect y="171.682" width="48.01" height="168.636"/>
	</g>
</g>
<g>
	<g>
		<path d="M505.569,247.168c-11.042-15.153-25.055-28.676-41.649-40.209c-33.217-23.075-72.726-35.278-114.255-35.278h-4.331    v168.636h4.331c20.764,0,41.019-3.051,60.243-8.982c19.224-5.941,37.408-14.763,54.012-26.296    c16.594-11.532,30.607-25.055,41.649-40.209L512,256L505.569,247.168z"/>
	</g>
</g>
<g>
</g>
<g>
</g>
<g>
</g>
<g>
</g>
<g>
</g>
<g>
</g>
<g>
</g>
<g>
</g>
<g>
</g>
<g>
</g>
<g>
</g>
<g>
</g>
<g>
</g>
<g>
</g>
<g>
</g>
</svg>
