<?xml version="1.0" encoding="iso-8859-1"?>
<!-- Generator: Adobe Illustrator 19.0.0, SVG Export Plug-In . SVG Version: 6.00 Build 0)  -->
<svg xmlns="http://www.w3.org/2000/svg" xmlns:xlink="http://www.w3.org/1999/xlink" version="1.1" id="Layer_1" x="0px" y="0px" viewBox="0 0 512 512" style="enable-background:new 0 0 512 512;" xml:space="preserve">
<g>
	<g>
		<rect x="155.388" y="458.039" width="201.225" height="53.961"/>
	</g>
</g>
<g>
	<g>
		<path d="M256.001,44.993c-34.251,0-62.119,27.859-62.119,62.119c0,18.932,8.767,36.826,23.356,48.519v123.729h77.527V155.632    c14.588-11.693,23.356-29.587,23.356-48.519C318.12,72.853,290.252,44.993,256.001,44.993z"/>
	</g>
</g>
<g>
	<g>
		<rect x="185.554" y="309.316" width="140.893" height="118.766"/>
	</g>
</g>
<g>
	<g>
		<path d="M351.848,46.426l-20.542,21.801c9.54,8.989,15.02,22.338,15.037,36.626c0.016,14.407-5.508,27.845-15.155,36.867    l20.461,21.878c15.691-14.673,24.675-36.099,24.649-58.78C376.272,82.326,367.359,61.042,351.848,46.426z"/>
	</g>
</g>
<g>
	<g>
		<path d="M395.509,24.536l-20.544,21.802c15.291,14.408,24.076,35.712,24.102,58.445c0.027,22.921-8.828,44.362-24.293,58.825    l20.461,21.88c21.509-20.115,33.824-49.544,33.788-80.74C428.988,73.809,416.772,44.573,395.509,24.536z"/>
	</g>
</g>
<g>
	<g>
		<path d="M440.762,0l-20.543,21.802c21.739,20.483,34.228,50.699,34.266,82.9c0.038,32.468-12.55,62.88-34.538,83.443l20.461,21.88    c28.031-26.214,44.08-64.615,44.032-105.358C484.395,64.26,468.473,26.11,440.762,0z"/>
	</g>
</g>
<g>
	<g>
		<path d="M165.659,104.855c0.016-14.287,5.497-27.638,15.037-36.627l-20.544-21.802c-15.511,14.616-24.423,35.9-24.449,58.394    c-0.027,22.681,8.958,44.105,24.649,58.78l20.461-21.878C171.165,132.699,165.642,119.261,165.659,104.855z"/>
	</g>
</g>
<g>
	<g>
		<path d="M112.934,104.783c0.026-22.733,8.812-44.036,24.102-58.445l-20.544-21.802c-21.263,20.037-33.479,49.273-33.515,80.212    c-0.036,31.197,12.278,60.626,33.788,80.74l20.461-21.88C121.761,149.146,112.907,127.705,112.934,104.783z"/>
	</g>
</g>
<g>
	<g>
		<path d="M57.516,104.702c0.038-32.201,12.526-62.416,34.266-82.9L71.238,0C43.527,26.11,27.606,64.26,27.559,104.667    c-0.048,40.742,16.002,79.144,44.032,105.358l20.461-21.88C70.067,167.582,57.478,137.169,57.516,104.702z"/>
	</g>
</g>
<g>
</g>
<g>
</g>
<g>
</g>
<g>
</g>
<g>
</g>
<g>
</g>
<g>
</g>
<g>
</g>
<g>
</g>
<g>
</g>
<g>
</g>
<g>
</g>
<g>
</g>
<g>
</g>
<g>
</g>
</svg>
