<?xml version="1.0" encoding="iso-8859-1"?>
<!-- Generator: Adobe Illustrator 19.0.0, SVG Export Plug-In . SVG Version: 6.00 Build 0)  -->
<svg xmlns="http://www.w3.org/2000/svg" xmlns:xlink="http://www.w3.org/1999/xlink" version="1.1" id="Layer_1" x="0px" y="0px" viewBox="0 0 512 512" style="enable-background:new 0 0 512 512;" xml:space="preserve">
<g>
	<g>
		<path d="M235.898,190.171c-3.541-0.26-7.233-0.45-11.074-0.54c-1.811-0.04-3.661-0.06-5.542-0.06c-2.341,0-4.632,0.03-6.862,0.1    c-0.01-0.01-0.02-0.01-0.03,0c-4.092,0.11-8.003,0.33-11.754,0.63c-74.778,6.142-82.861,48.738-82.861,48.738v220.932    c0,0,10.234,52.029,102.358,52.029c72.457,0,93.735-30.612,99.497-43.676c1.581-3.551,2.011-5.802,2.011-5.802v-9.124v-15.536    V283.395v-2.011V241.6C321.64,241.6,312.667,195.983,235.898,190.171z M167.443,266.909h75.568h30.971v30.011h-19.087h-87.452    V266.909z M167.442,330.433H268.18h5.802v14.636v15.375h-106.54V330.433z M273.983,423.967h-106.54v-30.011h106.54V423.967z"/>
	</g>
</g>
<g>
	<g>
		<path d="M472.086,322.77l-0.62-1.26L342.998,150.966l-1.09-0.98c-1.361-1.221-24.919-21.588-66.865-11.834L389.385,20.958    L367.897,0L212.399,159.389L56.902,0L35.414,20.958l139.202,142.673c13.555-2.711,28.461-4.072,44.667-4.072    c2.671,0,5.322,0.04,7.933,0.13c8.623,0.25,16.906,0.95,24.799,2.071l-1.691,1.731c1.03-0.53,2.051-1.05,3.051-1.541    c9.313,1.391,18.097,3.381,26.29,5.972c1.49,0.45,2.951,0.94,4.402,1.451c16.206,5.682,30.111,13.815,41.315,24.169    c20.237,18.707,24.959,38.484,25.71,42.266l0.56,2.871V270l12.605,15.996l-12.605,9.934v44.526l30.851-24.309l18.577,23.569    l-49.428,38.944v86.682l-0.52,2.771c-0.04,0.23-0.1,0.51-0.17,0.85c18.737-2.881,41.415-11.804,67.785-31.662    C497.915,377.66,473.176,324.991,472.086,322.77z"/>
	</g>
</g>
<g>
</g>
<g>
</g>
<g>
</g>
<g>
</g>
<g>
</g>
<g>
</g>
<g>
</g>
<g>
</g>
<g>
</g>
<g>
</g>
<g>
</g>
<g>
</g>
<g>
</g>
<g>
</g>
<g>
</g>
</svg>
