<?xml version="1.0" encoding="iso-8859-1"?>
<!-- Generator: Adobe Illustrator 19.0.0, SVG Export Plug-In . SVG Version: 6.00 Build 0)  -->
<svg xmlns="http://www.w3.org/2000/svg" xmlns:xlink="http://www.w3.org/1999/xlink" version="1.1" id="Layer_1" x="0px" y="0px" viewBox="0 0 512 512" style="enable-background:new 0 0 512 512;" xml:space="preserve">
<g>
	<g>
		<path d="M105.714,0v374.196L256,512l150.285-137.804V0H105.714z M256,428.73c-9.46,0-17.129-7.669-17.129-17.13    c0-9.46,7.669-17.129,17.129-17.129c9.46,0,17.129,7.669,17.129,17.129C273.13,421.061,265.46,428.73,256,428.73z M256,347.922    l-101.638-93.196l20.273-22.108l81.364,74.606l81.364-74.606l20.273,22.108L256,347.922z M256,264.021l-101.638-93.195    l20.273-22.108l81.364,74.605l81.364-74.605l20.273,22.108L256,264.021z M256,180.121L154.362,86.925l20.273-22.108l81.364,74.606    l81.364-74.606l20.273,22.108L256,180.121z"/>
	</g>
</g>
<g>
</g>
<g>
</g>
<g>
</g>
<g>
</g>
<g>
</g>
<g>
</g>
<g>
</g>
<g>
</g>
<g>
</g>
<g>
</g>
<g>
</g>
<g>
</g>
<g>
</g>
<g>
</g>
<g>
</g>
</svg>
