<?xml version="1.0" encoding="iso-8859-1"?>
<!-- Generator: Adobe Illustrator 19.0.0, SVG Export Plug-In . SVG Version: 6.00 Build 0)  -->
<svg xmlns="http://www.w3.org/2000/svg" xmlns:xlink="http://www.w3.org/1999/xlink" version="1.1" id="Layer_1" x="0px" y="0px" viewBox="0 0 512 512" style="enable-background:new 0 0 512 512;" xml:space="preserve">
<g>
	<g>
		<path d="M117.208,135.872c-18.78,26.4-28.88,57.89-28.84,90.93c0.05,37.24,12.98,72.47,36.65,100.639l-22.58,26.01    c-5.36-2.26-11.23-3.51-17.4-3.51c-24.73,0-44.84,20.11-44.84,44.84s20.11,44.84,44.84,44.84c5.73,0,11.2-1.09,16.24-3.06    l13.89,12.41c-11.69,12.32-19.14,28.91-19.91,47.41L94.609,512h142.939l-0.65-15.62c-1.62-38.91-32.73-69.38-70.82-69.38    c-8.88,0-17.38,1.68-25.21,4.71l-16.76-14.97c3.67-6.5,5.77-13.99,5.77-21.96c0-7.62-1.92-14.8-5.28-21.09l21.83-25.15    c27.91,22.74,62.5,35.11,98.989,35.11h0.21c32.18-0.04,62.86-9.7,88.769-27.6L117.208,135.872z"/>
	</g>
</g>
<g>
	<g>
		<path d="M301.467,193.582l12.01-12.04c5.96,2.75,12.49,4.21,19.26,4.21h0.06c12.29-0.02,23.83-4.82,32.51-13.52    c8.68-8.7,13.45-20.26,13.44-32.55c-0.02-12.29-4.82-23.84-13.52-32.52c-17.96-17.91-47.15-17.87-65.07,0.09    c-8.68,8.7-13.45,20.26-13.43,32.55c0.01,7.42,1.78,14.57,5.08,20.98l-11.58,11.61L167.688,60.153l-41.75,41.86l242.399,245.729    l43.73-43.85L301.467,193.582z"/>
	</g>
</g>
<g>
	<g>
		<path d="M406.718,66.666c-15.163-15.123-36.11-22.696-57.453-20.786l2.68,29.881c12.488-1.121,24.726,3.308,33.588,12.146    c8.936,8.911,13.387,21.24,12.211,33.824l29.869,2.791C429.624,103.001,422.009,81.915,406.718,66.666z"/>
	</g>
</g>
<g>
	<g>
		<path d="M442.894,28.724c-20.665-20.611-49.205-30.934-78.3-28.327l2.68,29.881c20.231-1.82,40.072,5.36,54.435,19.686    c14.483,14.446,21.697,34.427,19.791,54.818l29.869,2.793C474.109,78.248,463.732,49.507,442.894,28.724z"/>
	</g>
</g>
<g>
</g>
<g>
</g>
<g>
</g>
<g>
</g>
<g>
</g>
<g>
</g>
<g>
</g>
<g>
</g>
<g>
</g>
<g>
</g>
<g>
</g>
<g>
</g>
<g>
</g>
<g>
</g>
<g>
</g>
</svg>
