<?xml version="1.0" encoding="iso-8859-1"?>
<!-- Generator: Adobe Illustrator 19.0.0, SVG Export Plug-In . SVG Version: 6.00 Build 0)  -->
<svg xmlns="http://www.w3.org/2000/svg" xmlns:xlink="http://www.w3.org/1999/xlink" version="1.1" id="Layer_1" x="0px" y="0px" viewBox="0 0 512 512" style="enable-background:new 0 0 512 512;" xml:space="preserve">
<g>
	<g>
		<path d="M287.138,251.642l-0.914-15.49l-13-8.632c-5.111-3.393-11.066-5.186-17.223-5.186c-6.157,0-12.112,1.794-17.223,5.186    l-12.92,8.579l-0.982,15.405c-0.052,0.814-0.076,1.46-0.076,2.031c0,11.864,6.599,22.552,17.222,27.892l13.904,6.989l13.929-6.924    c10.701-5.318,17.348-16.03,17.348-27.957C287.203,252.995,287.182,252.377,287.138,251.642z"/>
	</g>
</g>
<g>
	<g>
		<path d="M196.048,265.934L75.137,269.23c4.518,53.495,32.015,101.462,75.932,132.468l63.941-102.686    C205.315,290.316,198.669,278.762,196.048,265.934z"/>
	</g>
</g>
<g>
	<g>
		<path d="M256,72c-26.435,0-52.551,5.776-76.35,16.804l57.292,106.562c6.107-2.001,12.527-3.032,19.058-3.032    c6.532,0,12.952,1.031,19.059,3.032l57.292-106.562C308.552,77.776,282.436,72,256,72z"/>
	</g>
</g>
<g>
	<g>
		<path d="M437.019,74.98C388.667,26.629,324.38,0,256,0S123.332,26.629,74.98,74.98C26.629,123.333,0,187.62,0,256    s26.629,132.667,74.98,181.02C123.332,485.371,187.62,512,256,512s132.667-26.629,181.019-74.98    C485.371,388.667,512,324.38,512,256S485.371,123.333,437.019,74.98z M438.22,361.009c-18.239,30.863-44.213,56.785-75.114,74.963    l-12.665,7.45L255.917,290.07l-95.22,152.92l-12.631-7.508c-30.811-18.315-56.663-44.345-74.759-75.275    c-18.652-31.88-28.621-68.351-28.828-105.471l-0.082-14.679l179.874-4.905L139.052,76.646l12.758-7.234    C183.437,51.479,219.466,42,256,42c36.535,0,72.564,9.479,104.19,27.411l12.758,7.234l-85.295,158.647l180.003,5.728    l-0.147,14.676C467.137,292.799,457.009,329.216,438.22,361.009z"/>
	</g>
</g>
<g>
	<g>
		<path d="M315.899,266.206c-2.675,12.821-9.37,24.344-19.111,32.997l63.47,102.972c44.059-30.807,71.773-78.649,76.53-132.122    L315.899,266.206z"/>
	</g>
</g>
<g>
</g>
<g>
</g>
<g>
</g>
<g>
</g>
<g>
</g>
<g>
</g>
<g>
</g>
<g>
</g>
<g>
</g>
<g>
</g>
<g>
</g>
<g>
</g>
<g>
</g>
<g>
</g>
<g>
</g>
</svg>
