<?xml version="1.0" encoding="iso-8859-1"?>
<!-- Generator: Adobe Illustrator 19.0.0, SVG Export Plug-In . SVG Version: 6.00 Build 0)  -->
<svg xmlns="http://www.w3.org/2000/svg" xmlns:xlink="http://www.w3.org/1999/xlink" version="1.1" id="Layer_1" x="0px" y="0px" viewBox="0 0 512 512" style="enable-background:new 0 0 512 512;" xml:space="preserve">
<g>
	<g>
		<path d="M359.03,103.22v116.33c-0.02,1.2-0.68,29.7-12.14,64.18c-12.99,39.11-34.78,70.37-63.58,91.51l28.15,26.79l53.77-16.73    v-0.01c8.83-37.1,32.62-70.39,69.28-96.74c7.53-5.42,14.93-10.06,21.79-13.96c5.4-3.09,10.47-5.72,15-7.91    c6.17-3.01,11.34-5.21,15-6.67V103.22H359.03z"/>
	</g>
</g>
<g>
	<g>
		<polygon points="380.46,411.98 292.35,439.4 0,439.4 0,502 68.58,502 68.58,491.95 71.16,488.58 86.02,488.58 88.42,491.82     88.42,502 170.17,502 170.17,491.95 172.74,488.58 187.61,488.58 190,491.82 190,502 271.75,502 271.75,491.95 274.33,488.58     289.19,488.58 291.58,491.82 291.58,502 512,502 512,411.98   "/>
	</g>
</g>
<g>
	<g>
		<path d="M129.54,331.14c-0.41-0.94-0.83-1.88-1.26-2.81c-2.79-6.02-5.76-11.36-8.61-15.95c-5.58-8.97-10.71-15.05-13.15-17.76    h-0.01c-12.93-1.48-28.02-0.92-46.26,3.98C4.89,313.45,3.24,387.25,4.03,409.4h135.78C143.92,382.35,140.49,356.09,129.54,331.14z    "/>
	</g>
</g>
<g>
	<g>
		<path d="M257.84,103.22V119h49.67v30h-49.67v16.5h49.67v30h-49.67v7.43c0,3.04-0.11,6.06-0.33,9.07h50v30h-24.65h-15.54h-15.73    c-1.55,4.67-3.38,9.22-5.49,13.59c-16.94,35.11-43.37,53.29-78.57,54.03c-5.3,0.12-10.7-1.1-16.51-2.91    c1.31,2.46,2.61,5.05,3.89,7.75c1.49,3.16,2.88,6.35,4.17,9.57c2.06,5.12,3.86,10.31,5.4,15.55c6.64,22.54,8.53,46.14,5.59,69.82    h105.62l-41.76-39.74l17.96-9.88c30.73-16.9,53.02-45.39,66.26-84.69c9.86-29.27,10.82-54.15,10.88-56.02V103.22H257.84z     M223.65,348.25c-6.81,0-12.33-5.52-12.33-12.33c0-2.12,0.54-4.13,1.49-5.88c0,0,0,0,0.01-0.01c2.08-3.84,6.15-6.45,10.83-6.45    c0.49,0,0.98,0.03,1.46,0.09c0.01,0,0.01,0,0.01,0c6.12,0.73,10.86,5.94,10.86,12.25C235.98,342.73,230.46,348.25,223.65,348.25z     M261.96,317.58c-6.81,0-12.33-5.52-12.33-12.33c0-0.58,0.04-1.15,0.12-1.7c0.64-4.7,3.94-8.56,8.33-10.01v-0.01    c1.22-0.4,2.53-0.62,3.88-0.62c6.81,0,12.33,5.53,12.33,12.34S268.77,317.58,261.96,317.58z M285.68,276.91    c-5.82,0-10.7-4.04-11.99-9.47v-0.01c-0.23-0.91-0.34-1.87-0.34-2.85c0-4.41,2.32-8.28,5.8-10.46c1.89-1.19,4.14-1.87,6.53-1.87    c6.81,0,12.34,5.52,12.34,12.33S292.49,276.91,285.68,276.91z"/>
	</g>
</g>
<g>
	<g>
		<rect x="257.84" y="10" width="71.19" height="63.22"/>
	</g>
</g>
<g>
	<g>
		<rect x="359.03" y="10" width="127.27" height="63.22"/>
	</g>
</g>
<g>
	<g>
		<path d="M493.26,289.6c-4.02,1.74-9.24,4.15-15.2,7.28c-3.6,1.89-7.46,4.04-11.48,6.46v0.01c-4.9,2.93-10.04,6.28-15.23,10.04    c-27.19,19.72-45.3,42.73-54.01,68.59h111.98C511.74,337.12,501.72,306.77,493.26,289.6z"/>
	</g>
</g>
<g>
</g>
<g>
</g>
<g>
</g>
<g>
</g>
<g>
</g>
<g>
</g>
<g>
</g>
<g>
</g>
<g>
</g>
<g>
</g>
<g>
</g>
<g>
</g>
<g>
</g>
<g>
</g>
<g>
</g>
</svg>
