<?xml version="1.0" encoding="iso-8859-1"?>
<!-- Generator: Adobe Illustrator 19.0.0, SVG Export Plug-In . SVG Version: 6.00 Build 0)  -->
<svg xmlns="http://www.w3.org/2000/svg" xmlns:xlink="http://www.w3.org/1999/xlink" version="1.1" id="Layer_1" x="0px" y="0px" viewBox="0 0 512.001 512.001" style="enable-background:new 0 0 512.001 512.001;" xml:space="preserve">
<g>
	<g>
		<path d="M241.114,257.142c-6.27-13.62-14.97-26.039-25.509-36.599l-41.409,29.119c22.24,17.75,33.769,47.239,27.189,76.838    c-3.98,17.9-13.93,32.959-27.289,43.549c-13.37,10.58-30.149,16.69-47.769,16.69c-4.59,0-9.24-0.42-13.9-1.28l-20.51,45.889    c2.31,0.66,4.65,1.25,7.02,1.78c9.18,2.04,18.44,3.05,27.629,3.05c23.75,0,47.049-6.73,67.579-19.8    c28.459-18.11,48.159-46.229,55.469-79.158C255.654,310.051,252.714,282.361,241.114,257.142z"/>
	</g>
</g>
<g>
	<g>
		<path d="M508.949,282.451c-6.08-27.359-20.61-51.329-42.019-69.299c-17.77-14.92-39.579-24.739-62.379-28.219l-9.53-42.889    l-29.409,6.53h-0.002c-3.005-8.127-7.888-18.577-15.613-28.978c-14.832-19.97-43.182-43.773-94.013-43.773    c-50.831,0-79.181,23.804-94.013,43.773c-7.726,10.402-12.608,20.852-15.613,28.978l-0.002-0.001l-29.409-6.53l-9.53,42.889    c-22.799,3.48-44.609,13.3-62.379,28.219c-21.42,17.97-35.949,41.939-42.019,69.299c-12.33,55.499,14.09,110.738,61.189,137.357    l20.3-45.439c-26.159-16.98-40.409-49.019-33.259-81.208c4.45-20.05,16.45-37.169,33.779-48.199    c17.33-11.03,37.909-14.65,57.969-10.2l56.359-39.479l7.4-33.289l-30.829-6.85c7.849-18.575,28.609-49.322,80.058-49.322    c51.475,0,72.231,30.779,80.066,49.322l-30.837,6.85l7.39,33.239l56.369,39.529c20.06-4.45,40.639-0.83,57.969,10.2    c17.33,11.03,29.329,28.149,33.779,48.199c4.45,20.05,0.83,40.639-10.2,57.959c-6.06,9.52-13.95,17.43-23.159,23.349l20.31,45.459    c17.92-10.06,33.189-24.45,44.529-42.269C510.319,349.19,516.269,315.381,508.949,282.451z M158.616,198.463    c-0.85,3.84-4.66,6.26-8.5,5.41s-6.26-4.66-5.41-8.5s4.66-6.27,8.5-5.41C157.046,190.813,159.466,194.623,158.616,198.463z     M361.852,203.873c-3.84,0.85-7.65-1.57-8.5-5.41c-0.85-3.84,1.57-7.65,5.41-8.5c3.84-0.86,7.65,1.57,8.5,5.41    C368.112,199.213,365.692,203.023,361.852,203.873z"/>
	</g>
</g>
<g>
	<g>
		<path d="M399.421,385.479c-4.64,0.86-9.29,1.28-13.92,1.28c-14.46,0-28.649-4.1-41.139-12.06    c-17.33-11.03-29.329-28.139-33.779-48.199c-1.24-5.59-1.86-11.23-1.86-16.82c0-14.46,4.1-28.649,12.05-41.139    c4.66-7.32,10.41-13.69,17-18.93l-41.379-29.099c-10.55,10.57-19.26,23-25.529,36.629c-11.61,25.219-14.55,52.909-8.52,80.078    c7.32,32.929,27.019,61.049,55.479,79.158c20.53,13.07,43.829,19.8,67.579,19.8c9.19,0,18.45-1.01,27.629-3.05    c2.33-0.52,4.63-1.1,6.9-1.74L399.421,385.479z"/>
	</g>
</g>
<g>
</g>
<g>
</g>
<g>
</g>
<g>
</g>
<g>
</g>
<g>
</g>
<g>
</g>
<g>
</g>
<g>
</g>
<g>
</g>
<g>
</g>
<g>
</g>
<g>
</g>
<g>
</g>
<g>
</g>
</svg>
