<?xml version="1.0" encoding="iso-8859-1"?>
<!-- Generator: Adobe Illustrator 19.0.0, SVG Export Plug-In . SVG Version: 6.00 Build 0)  -->
<svg xmlns="http://www.w3.org/2000/svg" xmlns:xlink="http://www.w3.org/1999/xlink" version="1.1" id="Layer_1" x="0px" y="0px" viewBox="0 0 512 512" style="enable-background:new 0 0 512 512;" xml:space="preserve">
<g>
	<g>
		<path d="M456.85,241c-3.46-46.89-23.06-89.36-53.23-121.88l-10.18,10.96l-10.29,11.08l-12.7,13.67    c23.98,27.52,37.48,63.14,37.48,99.9c0,83.78-68.16,151.93-151.93,151.93s-151.93-68.15-151.93-151.93    c0-41.86,17.54-82.29,48.11-110.91l20.5,21.89c-24.89,23.32-38.61,54.93-38.61,89.02c0,67.23,54.7,121.93,121.93,121.93    s121.93-54.7,121.93-121.93c0-28.45-10.08-56.03-28.04-77.77l-22.38,24.1c11.51,15.38,17.91,34.25,17.91,53.67    c0,49.31-40.11,89.42-89.42,89.42s-89.42-40.11-89.42-89.42c0-21.32,7.63-41.97,21.49-58.15l22.78,19.52    c-9.2,10.74-14.27,24.46-14.27,38.63c0,32.77,26.66,59.42,59.42,59.42s59.42-26.65,59.42-59.42c0-11.25-3.06-21.93-8.8-31.18    l-30.98,33.34c-0.46,10.45-9.08,18.78-19.64,18.78c-10.86,0-19.67-8.81-19.67-19.67c0-10.07,7.58-18.38,17.34-19.53l107.51-115.73    l10.29-11.08l10.18-10.96C350.84,74.04,312.67,58.23,271,55.15V0h-30v55.15C141.873,62.474,62.478,141.876,55.145,241H0v30h55.148    C62.481,370.128,141.872,449.519,241,456.852V512h30v-55.145c99.124-7.333,178.526-86.728,185.85-185.855H512v-30H456.85z     M256,113.5c8.84,0,16,7.16,16,16c0,8.84-7.16,16-16,16c-8.84,0-16-7.16-16-16C240,120.66,247.16,113.5,256,113.5z"/>
	</g>
</g>
<g>
	<g>
		<path d="M411.21,66.88L381.65,98.7c7.82,6.25,15.16,13.08,21.97,20.42l29.57-31.83L411.21,66.88z"/>
	</g>
</g>
<g>
</g>
<g>
</g>
<g>
</g>
<g>
</g>
<g>
</g>
<g>
</g>
<g>
</g>
<g>
</g>
<g>
</g>
<g>
</g>
<g>
</g>
<g>
</g>
<g>
</g>
<g>
</g>
<g>
</g>
</svg>
