<?xml version="1.0" encoding="iso-8859-1"?>
<!-- Generator: Adobe Illustrator 19.0.0, SVG Export Plug-In . SVG Version: 6.00 Build 0)  -->
<svg xmlns="http://www.w3.org/2000/svg" xmlns:xlink="http://www.w3.org/1999/xlink" version="1.1" id="Layer_1" x="0px" y="0px" viewBox="0 0 512 512" style="enable-background:new 0 0 512 512;" xml:space="preserve">
<g>
	<g>
		<polygon points="294.847,0 269.999,51.666 278.418,68.745 286.848,85.833 336.974,187.525 345.403,204.614 353.822,221.703     460.474,0   "/>
	</g>
</g>
<g>
	<g>
		<polygon points="392.419,351.633 298.157,337.934 270.999,282.908 270.999,252 369.821,252 369.821,222.003 353.972,222.003     353.822,221.703 353.682,222.003 320.545,222.003 211.093,0 51.526,0 158.328,222.003 142.179,222.003 142.179,252 241.001,252     241.001,282.908 213.843,337.934 119.581,351.633 187.785,418.117 171.687,512 256,467.673 340.313,512 324.215,418.117   "/>
	</g>
</g>
<g>
</g>
<g>
</g>
<g>
</g>
<g>
</g>
<g>
</g>
<g>
</g>
<g>
</g>
<g>
</g>
<g>
</g>
<g>
</g>
<g>
</g>
<g>
</g>
<g>
</g>
<g>
</g>
<g>
</g>
</svg>
