<?xml version="1.0" encoding="iso-8859-1"?>
<!-- Generator: Adobe Illustrator 19.0.0, SVG Export Plug-In . SVG Version: 6.00 Build 0)  -->
<svg xmlns="http://www.w3.org/2000/svg" xmlns:xlink="http://www.w3.org/1999/xlink" version="1.1" id="Layer_1" x="0px" y="0px" viewBox="0 0 512.01 512.01" style="enable-background:new 0 0 512.01 512.01;" xml:space="preserve">
<g>
	<g>
		<rect x="303.395" y="445.6" width="145" height="66.41"/>
	</g>
</g>
<g>
	<g>
		<polygon points="463.074,43.711 463.074,0 288.936,0 288.936,43.711 271.537,43.711 271.537,174.107 480.473,174.107     480.473,43.711   "/>
	</g>
</g>
<g>
	<g>
		<polygon points="292.518,204.107 292.518,246.769 219.492,246.769 219.492,204.107 52.518,204.107 52.518,361.371 75.203,361.371     75.203,415.595 196.807,415.595 196.807,361.371 219.492,361.371 219.492,311 292.518,311 292.518,361.371 315.094,361.371     315.094,415.595 436.697,415.595 436.697,361.371 459.492,361.371 459.492,204.107   "/>
	</g>
</g>
<g>
	<g>
		<polygon points="223.074,43.711 223.074,0 48.936,0 48.936,43.711 31.537,43.711 31.537,174.107 240.473,174.107 240.473,43.711       "/>
	</g>
</g>
<g>
	<g>
		<rect x="63.505" y="445.6" width="145" height="66.41"/>
	</g>
</g>
<g>
</g>
<g>
</g>
<g>
</g>
<g>
</g>
<g>
</g>
<g>
</g>
<g>
</g>
<g>
</g>
<g>
</g>
<g>
</g>
<g>
</g>
<g>
</g>
<g>
</g>
<g>
</g>
<g>
</g>
</svg>
