<?xml version="1.0" encoding="iso-8859-1"?>
<!-- Generator: Adobe Illustrator 19.0.0, SVG Export Plug-In . SVG Version: 6.00 Build 0)  -->
<svg xmlns="http://www.w3.org/2000/svg" xmlns:xlink="http://www.w3.org/1999/xlink" version="1.1" id="Layer_1" x="0px" y="0px" viewBox="0 0 512 512" style="enable-background:new 0 0 512 512;" xml:space="preserve">
<g>
	<g>
		<path d="M418.479,162.479C418.479,72.888,345.591,0,255.999,0S93.521,72.888,93.521,162.479    c0,36.241,25.395,102.862,75.479,198.011c28.265,53.698,56.825,101.933,68.624,121.531h-41.891v29.938h60.243L256,512l0.025-0.041    h60.243v-29.937h-41.891c11.797-19.598,40.358-67.834,68.624-121.531C393.085,265.341,418.479,198.72,418.479,162.479z     M336.001,170.964v0.001c-6.143,32.903-32.13,58.89-65.033,65.034v-38.035h-29.937v38.034    c-32.903-6.143-58.889-32.13-65.033-65.034h38.034v-29.937h-38.034c6.144-32.902,32.13-58.889,65.033-65.033v38.034h29.937V75.995    c32.902,6.143,58.889,32.13,65.033,65.033h-38.034v29.937H336.001z"/>
	</g>
</g>
<g>
	<g>
		<rect x="239.441" y="139.469" width="33.107" height="33.107"/>
	</g>
</g>
<g>
</g>
<g>
</g>
<g>
</g>
<g>
</g>
<g>
</g>
<g>
</g>
<g>
</g>
<g>
</g>
<g>
</g>
<g>
</g>
<g>
</g>
<g>
</g>
<g>
</g>
<g>
</g>
<g>
</g>
</svg>
