<?xml version="1.0" encoding="iso-8859-1"?>
<!-- Generator: Adobe Illustrator 19.0.0, SVG Export Plug-In . SVG Version: 6.00 Build 0)  -->
<svg xmlns="http://www.w3.org/2000/svg" xmlns:xlink="http://www.w3.org/1999/xlink" version="1.1" id="Layer_1" x="0px" y="0px" viewBox="0 0 512 512" style="enable-background:new 0 0 512 512;" xml:space="preserve">
<g>
	<g>
		<path d="M493.282,19.832L487.035,0l-16.848,12.185c-4.93,3.566-9.914,6.969-14.894,10.21l2.975,12.71    c10.364,43.426-20.569,82.605-37.187,103.655l-0.545,0.69l-0.622,0.622c-57.247,57.248-116.397,116.399-174.559,174.741    l30.121,30.12l184.328-184.328c18.321-18.322,31.002-41.56,36.673-67.204C501.866,69.016,500.763,43.577,493.282,19.832z"/>
	</g>
</g>
<g>
	<g>
		<path d="M429.075,42.004l-0.807-3.446c-36.296,19.99-66.71,30.446-67.386,30.676l-3.327,1.123l-67.807,67.807l26.933,26.933    l-21.211,21.211l-26.932-26.933l-13.117,13.117l26.933,26.933l-21.211,21.211l-26.933-26.933l-13.117,13.117l26.933,26.932    l-21.211,21.211l-26.933-26.932l-20.655,20.655h-0.001l44.917,44.915c57.956-58.137,116.882-117.063,173.934-174.115    C416.555,96.022,435.474,68.823,429.075,42.004z"/>
	</g>
</g>
<g>
	<g>
		<polygon points="229.346,391.06 254.265,366.142 158.018,269.895 12.16,415.753 108.407,512 136.116,484.291 112.319,460.495     133.53,439.284 157.326,463.081 172.125,448.28 148.33,424.485 169.54,403.275 193.336,427.071 208.135,412.27 184.34,388.474     205.551,367.264   "/>
	</g>
</g>
<g>
</g>
<g>
</g>
<g>
</g>
<g>
</g>
<g>
</g>
<g>
</g>
<g>
</g>
<g>
</g>
<g>
</g>
<g>
</g>
<g>
</g>
<g>
</g>
<g>
</g>
<g>
</g>
<g>
</g>
</svg>
