<?xml version="1.0" encoding="iso-8859-1"?>
<!-- Generator: Adobe Illustrator 19.0.0, SVG Export Plug-In . SVG Version: 6.00 Build 0)  -->
<svg xmlns="http://www.w3.org/2000/svg" xmlns:xlink="http://www.w3.org/1999/xlink" version="1.1" id="Layer_1" x="0px" y="0px" viewBox="0 0 512 512" style="enable-background:new 0 0 512 512;" xml:space="preserve">
<g>
	<g>
		<polygon points="365.03,434.405 146.97,434.405 131.19,481.775 380.81,481.775   "/>
	</g>
</g>
<g>
	<g>
		<path d="M475.34,357.735c-6.22-2.72-12.97-4.42-20.05-4.88c-1.33-0.09-2.68-0.14-4.04-0.14H60.75c-1.37,0-2.72,0.05-4.06,0.14    h-0.01c-7.05,0.47-13.78,2.16-19.98,4.86c-21.54,9.36-36.7,30.87-36.7,55.75v7.56c0,33.41,27.34,60.75,60.75,60.75h38.82    l25.77-77.37h261.32l25.77,77.37h38.82c33.41,0,60.75-27.34,60.75-60.75v-7.56C512,388.605,496.86,367.095,475.34,357.735z     M73.55,433.495c-8.98,0-16.25-7.27-16.25-16.25c0-8.97,7.27-16.25,16.25-16.25c8.97,0,16.25,7.28,16.25,16.25    C89.8,426.225,82.52,433.495,73.55,433.495z M438.45,433.495c-8.97,0-16.25-7.27-16.25-16.25c0-8.97,7.28-16.25,16.25-16.25    c8.98,0,16.25,7.28,16.25,16.25C454.7,426.225,447.43,433.495,438.45,433.495z"/>
	</g>
</g>
<g>
	<g>
		<path d="M288.75,30.225l-13.85,12.53c-0.9,0.8-21.97,20.11-35.47,52.54c-12.57,30.2-20.88,77.9,10.9,133.68l53.41,93.74h147.51    c1.41,0,2.8,0.03,4.19,0.1L288.75,30.225z"/>
	</g>
</g>
<g>
	<g>
		<path d="M205.35,175.575l-2.76-19.27l-17.93,7.58c-17.01,7.19-36.72,23.87-58.6,49.59c-15.49,18.2-29.53,38.38-41.73,59.96    l-27.91,49.39c1.43-0.08,2.88-0.11,4.33-0.11h99.85l2.65-4.68c12.2-21.58,22.24-44.02,29.85-66.68    C203.84,219.355,207.96,193.855,205.35,175.575z"/>
	</g>
</g>
<g>
</g>
<g>
</g>
<g>
</g>
<g>
</g>
<g>
</g>
<g>
</g>
<g>
</g>
<g>
</g>
<g>
</g>
<g>
</g>
<g>
</g>
<g>
</g>
<g>
</g>
<g>
</g>
<g>
</g>
</svg>
