<?xml version="1.0" encoding="iso-8859-1"?>
<!-- Generator: Adobe Illustrator 19.0.0, SVG Export Plug-In . SVG Version: 6.00 Build 0)  -->
<svg xmlns="http://www.w3.org/2000/svg" xmlns:xlink="http://www.w3.org/1999/xlink" version="1.1" id="Layer_1" x="0px" y="0px" viewBox="0 0 512 512" style="enable-background:new 0 0 512 512;" xml:space="preserve">
<g>
	<g>
		<rect x="187.452" y="175.53" width="237.58" height="146.47"/>
	</g>
</g>
<g>
	<g>
		<polygon points="425.032,482 425.032,352 187.452,352 187.452,482 172.481,482 172.481,512 439.998,512 439.998,482   "/>
	</g>
</g>
<g>
	<g>
		<path d="M219.482,87.39l-26.66,58.14h226.83l-26.65-58.14h-18.06V72h42.933V42h-42.933V15.73h-137.41v35.827h-34.121    C196.59,22.059,170.101,0,138.562,0c-36.7,0-66.56,29.86-66.56,66.56s29.86,66.55,66.56,66.55c31.54,0,58.03-22.05,64.85-51.55    c0-0.001,0-0.002,0.001-0.003h34.119v5.833H219.482z M138.562,103.11c-20.16,0-36.56-16.4-36.56-36.55    c0-20.16,16.4-36.56,36.56-36.56c20.16,0,36.56,16.4,36.56,36.56C175.122,86.71,158.722,103.11,138.562,103.11z"/>
	</g>
</g>
<g>
</g>
<g>
</g>
<g>
</g>
<g>
</g>
<g>
</g>
<g>
</g>
<g>
</g>
<g>
</g>
<g>
</g>
<g>
</g>
<g>
</g>
<g>
</g>
<g>
</g>
<g>
</g>
<g>
</g>
</svg>
