<?xml version="1.0" encoding="iso-8859-1"?>
<!-- Generator: Adobe Illustrator 19.0.0, SVG Export Plug-In . SVG Version: 6.00 Build 0)  -->
<svg xmlns="http://www.w3.org/2000/svg" xmlns:xlink="http://www.w3.org/1999/xlink" version="1.1" id="Layer_1" x="0px" y="0px" viewBox="0 0 511.999 511.999" style="enable-background:new 0 0 511.999 511.999;" xml:space="preserve">
<g>
	<g>
		<polygon points="359.205,141.939 480.05,21.094 458.956,0 436.146,22.81 419.555,6.219 398.461,27.313 415.052,43.904     338.111,120.845 316.37,99.104 241.613,173.862 306.277,238.347 380.945,163.679 359.208,141.942   "/>
	</g>
</g>
<g>
	<g>
		<path d="M387.181,321.705c-38.89,4.396-63.053-13.234-76.438-28.697l-62.228,61.781c4.733,5.111,9.556,9.695,14.419,13.832    l-32.576,32.576v-0.001c-2.526-6.394-4.584-13.911-5.738-22.682l-66.922,66.444c5.867,18.356,15.999,39.009,33.481,56.491    l10.54,10.55l55.814-55.814l14.687-14.21l-17.959-9.367c-0.646-0.388-3.53-2.198-7.289-5.837c0-0.001-0.001-0.001-0.001-0.001    l40.809-40.809c0.001,0,0.001,0.001,0.002,0.001c12.062,6.801,23.597,11.207,33.57,14.06c17.362,4.962,32.367,5.986,41.804,5.986    c6.314,0,10.143-0.457,10.521-0.507l9.496-1.193l26.789-85.168L387.181,321.705z"/>
	</g>
</g>
<g>
	<g>
		<path d="M293.44,267.681l-72.918-72.729L31.948,383.526l72.381,72.381l189.35-187.997L293.44,267.681z M119.603,400.759    l-21.011-21.18l51.051-50.634l21.011,21.18L119.603,400.759z"/>
	</g>
</g>
<g>
</g>
<g>
</g>
<g>
</g>
<g>
</g>
<g>
</g>
<g>
</g>
<g>
</g>
<g>
</g>
<g>
</g>
<g>
</g>
<g>
</g>
<g>
</g>
<g>
</g>
<g>
</g>
<g>
</g>
</svg>
