<?xml version="1.0" encoding="iso-8859-1"?>
<!-- Generator: Adobe Illustrator 19.0.0, SVG Export Plug-In . SVG Version: 6.00 Build 0)  -->
<svg xmlns="http://www.w3.org/2000/svg" xmlns:xlink="http://www.w3.org/1999/xlink" version="1.1" id="Layer_1" x="0px" y="0px" viewBox="0 0 512 512" style="enable-background:new 0 0 512 512;" xml:space="preserve">
<g>
	<g>
		<path d="M452.03,157.08c-16.05-1.34-27.39-9.36-34.69-24.51c-5.63-11.69-6.7-23.5-6.83-25.38V0h-91.86v68.48    c0,36.2-55.44,41.81-62.65,42.38c-7.29-0.58-62.65-6.21-62.65-42.38V0h-91.86v107.19c-0.14,1.88-1.2,13.69-6.83,25.38    c-7.3,15.15-18.65,23.17-34.7,24.51l-13.74,1.15V268h69.53v-25h107v25h65.89v-25h107v25h70.14V158.23L452.03,157.08z"/>
	</g>
</g>
<g>
	<g>
		<polygon points="395.64,418 395.64,443 288.64,443 288.64,418 222.75,418 222.75,443 115.75,443 115.75,418 46.22,418 46.22,512     465.78,512 465.78,418   "/>
	</g>
</g>
<g>
	<g>
		<polygon points="395.64,298 395.64,323 288.64,323 288.64,298 222.75,298 222.75,323 115.75,323 115.75,298 46.22,298 46.22,388     115.75,388 115.75,363 222.75,363 222.75,388 288.64,388 288.64,363 395.64,363 395.64,388 465.78,388 465.78,298   "/>
	</g>
</g>
<g>
</g>
<g>
</g>
<g>
</g>
<g>
</g>
<g>
</g>
<g>
</g>
<g>
</g>
<g>
</g>
<g>
</g>
<g>
</g>
<g>
</g>
<g>
</g>
<g>
</g>
<g>
</g>
<g>
</g>
</svg>
