<?xml version="1.0" encoding="iso-8859-1"?>
<!-- Generator: Adobe Illustrator 19.0.0, SVG Export Plug-In . SVG Version: 6.00 Build 0)  -->
<svg xmlns="http://www.w3.org/2000/svg" xmlns:xlink="http://www.w3.org/1999/xlink" version="1.1" id="Layer_1" x="0px" y="0px" viewBox="0 0 512 512" style="enable-background:new 0 0 512 512;" xml:space="preserve">
<g>
	<g>
		<path d="M480.55,227h-15h-6.56H53.01h-6.56h-15v125.13h47.63c3.105,11.634,7.656,25.143,14.324,39.086    c22.916,47.921,60.581,79.654,109.386,92.421V512h106.42v-28.362c48.805-12.767,86.47-44.501,109.386-92.421    c6.668-13.944,11.218-27.452,14.324-39.086h47.63L480.55,227L480.55,227z M391.531,378.273    c-17.995,37.633-45.643,62.505-82.321,74.163V435.31H202.79v17.125c-36.386-11.568-63.893-36.149-81.904-73.296    c-12.843-26.488-16.859-51.742-17.971-61.059l4.055-8.031h298.06l4.065,8.051C408.023,327.263,404.143,351.9,391.531,378.273z"/>
	</g>
</g>
<g>
	<g>
		<path d="M401.74,55.51C366.49,18.68,317.46,0,256,0c-61.46,0-110.49,18.68-145.74,55.51C65.91,101.85,55.49,164.47,53.18,197    h15.08h15.06h345.32h15.1h15.08C456.51,164.47,446.09,101.85,401.74,55.51z M279.97,172.86L256,160.26l-23.97,12.6l4.58-26.69    l-19.39-18.9l26.8-3.89L256,99.1l11.98,24.28l26.8,3.89l-19.39,18.9L279.97,172.86z"/>
	</g>
</g>
<g>
</g>
<g>
</g>
<g>
</g>
<g>
</g>
<g>
</g>
<g>
</g>
<g>
</g>
<g>
</g>
<g>
</g>
<g>
</g>
<g>
</g>
<g>
</g>
<g>
</g>
<g>
</g>
<g>
</g>
</svg>
