<?xml version="1.0" encoding="iso-8859-1"?>
<!-- Generator: Adobe Illustrator 19.0.0, SVG Export Plug-In . SVG Version: 6.00 Build 0)  -->
<svg xmlns="http://www.w3.org/2000/svg" xmlns:xlink="http://www.w3.org/1999/xlink" version="1.1" id="Layer_1" x="0px" y="0px" viewBox="0 0 512 512" style="enable-background:new 0 0 512 512;" xml:space="preserve">
<g>
	<g>
		<path d="M361.378,179v-33h-30v33h-28v-33h-30v33h-47.5V0h-30v179h-30.003v37.47h-37.75V346.2h37.75V428h15h15h158h15h15V179    H361.378z M328.125,366h-106.5v-30h106.5V366z M328.125,313h-106.5v-30h106.5V313z M328.125,260h-106.5v-30h106.5V260z"/>
	</g>
</g>
<g>
	<g>
		<polygon points="368.875,458 353.875,458 195.875,458 180.875,458 165.875,458 165.875,512 383.875,512 383.875,458   "/>
	</g>
</g>
<g>
</g>
<g>
</g>
<g>
</g>
<g>
</g>
<g>
</g>
<g>
</g>
<g>
</g>
<g>
</g>
<g>
</g>
<g>
</g>
<g>
</g>
<g>
</g>
<g>
</g>
<g>
</g>
<g>
</g>
</svg>
