<?xml version="1.0" encoding="iso-8859-1"?>
<!-- Generator: Adobe Illustrator 19.0.0, SVG Export Plug-In . SVG Version: 6.00 Build 0)  -->
<svg xmlns="http://www.w3.org/2000/svg" xmlns:xlink="http://www.w3.org/1999/xlink" version="1.1" id="Layer_1" x="0px" y="0px" viewBox="0 0 512 512" style="enable-background:new 0 0 512 512;" xml:space="preserve">
<g>
	<g>
		<path d="M304.34,241h59.12c-6.64-47.85-44.61-85.82-92.46-92.46v59.12h-30v-59.12c-47.85,6.64-85.82,44.61-92.46,92.46h59.12v30    h-59.12c6.64,47.85,44.61,85.82,92.46,92.46v-59.12h30v59.12c47.85-6.64,85.82-44.61,92.46-92.46h-59.12V241z M256,272.25    c-8.97,0-16.25-7.28-16.25-16.25c0-8.97,7.28-16.25,16.25-16.25c8.97,0,16.25,7.28,16.25,16.25    C272.25,264.97,264.97,272.25,256,272.25z"/>
	</g>
</g>
<g>
	<g>
		<path d="M62.58,241h15.04h15.06h25.63c6.97-64.41,58.28-115.72,122.69-122.69V92.68V77.62V62.58    C145.96,69.88,69.88,145.96,62.58,241z"/>
	</g>
</g>
<g>
	<g>
		<path d="M271,62.58v15.04v15.06v25.63c64.41,6.97,115.72,58.28,122.69,122.69h25.63h15.06h15.04    C442.12,145.96,366.04,69.88,271,62.58z"/>
	</g>
</g>
<g>
	<g>
		<path d="M118.31,271H92.68H77.62H62.58c7.3,95.04,83.38,171.12,178.42,178.42v-15.04v-15.06v-25.63    C176.59,386.72,125.28,335.41,118.31,271z"/>
	</g>
</g>
<g>
	<g>
		<path d="M434.38,271h-15.06h-25.63c-6.97,64.41-58.28,115.72-122.69,122.69v25.63v15.06v15.04    c95.04-7.3,171.12-83.38,178.42-178.42H434.38z"/>
	</g>
</g>
<g>
	<g>
		<path d="M241,0v62.58c4.95-0.39,9.95-0.58,15-0.58s10.05,0.19,15,0.58V0H241z"/>
	</g>
</g>
<g>
	<g>
		<path d="M256,450c-5.05,0-10.05-0.19-15-0.58V512h30v-62.58C266.05,449.81,261.05,450,256,450z"/>
	</g>
</g>
<g>
	<g>
		<path d="M449.42,241c0.39,4.95,0.58,9.95,0.58,15s-0.19,10.05-0.58,15H512v-30H449.42z"/>
	</g>
</g>
<g>
	<g>
		<path d="M62.58,241H0v30h62.58c-0.39-4.95-0.58-9.95-0.58-15S62.19,245.95,62.58,241z"/>
	</g>
</g>
<g>
</g>
<g>
</g>
<g>
</g>
<g>
</g>
<g>
</g>
<g>
</g>
<g>
</g>
<g>
</g>
<g>
</g>
<g>
</g>
<g>
</g>
<g>
</g>
<g>
</g>
<g>
</g>
<g>
</g>
</svg>
