<?xml version="1.0" encoding="iso-8859-1"?>
<!-- Generator: Adobe Illustrator 19.0.0, SVG Export Plug-In . SVG Version: 6.00 Build 0)  -->
<svg xmlns="http://www.w3.org/2000/svg" xmlns:xlink="http://www.w3.org/1999/xlink" version="1.1" id="Layer_1" x="0px" y="0px" viewBox="0 0 512 512" style="enable-background:new 0 0 512 512;" xml:space="preserve">
<g>
	<g>
		<path d="M256,324.07c-31.99,0-58.02,26.03-58.02,58.02s26.03,58.02,58.02,58.02s58.02-26.03,58.02-58.02S287.99,324.07,256,324.07    z"/>
	</g>
</g>
<g>
	<g>
		<polygon points="297.85,0 297.85,256 374.98,207.34 374.98,0   "/>
	</g>
</g>
<g>
	<g>
		<polygon points="137.02,0 137.02,207.34 214.15,256 214.15,0   "/>
	</g>
</g>
<g>
	<g>
		<path d="M297.85,259.1c-1.07-0.37-2.15-0.72-3.23-1.06c-6.7-2.09-13.64-3.65-20.76-4.64c-1.99-0.27-3.99-0.5-6.01-0.68V0h-23.7    v252.72c-2.02,0.18-4.02,0.41-6.01,0.68c-7.12,0.99-14.06,2.55-20.76,4.64c-1.08,0.34-2.16,0.69-3.23,1.06    c-51.16,17.45-88.06,66-88.06,122.99C126.09,453.72,184.37,512,256,512s129.91-58.28,129.91-129.91    C385.91,325.1,349.01,276.55,297.85,259.1z M256,470.11c-48.53,0-88.02-39.48-88.02-88.02c0-48.53,39.49-88.02,88.02-88.02    s88.02,39.49,88.02,88.02C344.02,430.63,304.53,470.11,256,470.11z"/>
	</g>
</g>
<g>
</g>
<g>
</g>
<g>
</g>
<g>
</g>
<g>
</g>
<g>
</g>
<g>
</g>
<g>
</g>
<g>
</g>
<g>
</g>
<g>
</g>
<g>
</g>
<g>
</g>
<g>
</g>
<g>
</g>
</svg>
