<?xml version="1.0" encoding="iso-8859-1"?>
<!-- Generator: Adobe Illustrator 19.0.0, SVG Export Plug-In . SVG Version: 6.00 Build 0)  -->
<svg xmlns="http://www.w3.org/2000/svg" xmlns:xlink="http://www.w3.org/1999/xlink" version="1.1" id="Layer_1" x="0px" y="0px" viewBox="0 0 512 512" style="enable-background:new 0 0 512 512;" xml:space="preserve">
<g>
	<g>
		<path d="M146.802,418.51C154.936,471.386,200.75,512,255.86,512c55.11,0,100.923-40.614,109.058-93.49H146.802z"/>
	</g>
</g>
<g>
	<g>
		<rect x="145.519" y="361.727" width="220.681" height="26.729"/>
	</g>
</g>
<g>
	<g>
		<path d="M396.104,0l-110.34,73.774v99.29c-4.829-1.372-9.798-2.414-14.877-3.095V40.619h-30.055v129.35    c-4.979,0.671-9.858,1.683-14.596,3.015v-99.21L115.896,0v158.538l62.784,41.976c-20.457,20.026-33.16,47.937-33.16,78.763v52.395    H366.2v-52.395c0-30.766-12.653-58.627-33.04-78.653l62.944-42.087V0z"/>
	</g>
</g>
<g>
</g>
<g>
</g>
<g>
</g>
<g>
</g>
<g>
</g>
<g>
</g>
<g>
</g>
<g>
</g>
<g>
</g>
<g>
</g>
<g>
</g>
<g>
</g>
<g>
</g>
<g>
</g>
<g>
</g>
</svg>
