<?xml version="1.0" encoding="iso-8859-1"?>
<!-- Generator: Adobe Illustrator 19.0.0, SVG Export Plug-In . SVG Version: 6.00 Build 0)  -->
<svg xmlns="http://www.w3.org/2000/svg" xmlns:xlink="http://www.w3.org/1999/xlink" version="1.1" id="Layer_1" x="0px" y="0px" viewBox="0 0 512 512" style="enable-background:new 0 0 512 512;" xml:space="preserve">
<g>
	<g>
		<path d="M411.265,64.31C369.795,22.84,314.655,0,256.005,0s-113.79,22.84-155.27,64.31c-41.18,41.19-63.98,95.84-64.3,154.02    c-0.01,0.07-0.01,0.13,0,0.2l0.77,1.05L231.475,482h-29.634v30h108.667v-30h-29.943l194.26-262.42l0.74-1.01    c0.01-0.09,0.01-0.18,0-0.27C475.245,160.13,452.435,105.49,411.265,64.31z M209.734,402.209L75.525,220.91    c6.696-4.559,15.651-8.888,25.825-9.235c13.384-0.452,26.917,6.197,40.281,19.732l68.106,170.805L209.734,402.209z     M240.236,397.701l-68.608-172.065c6.673-5.711,18.127-13.417,31.811-13.953c12.218-0.475,24.567,4.958,36.797,16.158V397.701z     M270.235,400.989V229.018c5.419-5.354,18.792-16.68,35.492-17.334c11.417-0.444,22.95,4.278,34.394,14.038L270.235,400.989z     M301.742,402.971l68.336-171.383c1.73-1.981,17.296-19.096,37.938-19.905c9.414-0.375,18.919,2.781,28.387,9.38L301.742,402.971z    "/>
	</g>
</g>
<g>
</g>
<g>
</g>
<g>
</g>
<g>
</g>
<g>
</g>
<g>
</g>
<g>
</g>
<g>
</g>
<g>
</g>
<g>
</g>
<g>
</g>
<g>
</g>
<g>
</g>
<g>
</g>
<g>
</g>
</svg>
