<?xml version="1.0" encoding="iso-8859-1"?>
<!-- Generator: Adobe Illustrator 19.0.0, SVG Export Plug-In . SVG Version: 6.00 Build 0)  -->
<svg xmlns="http://www.w3.org/2000/svg" xmlns:xlink="http://www.w3.org/1999/xlink" version="1.1" id="Layer_1" x="0px" y="0px" viewBox="0 0 512 512" style="enable-background:new 0 0 512 512;" xml:space="preserve">
<g>
	<g>
		<path d="M257.176,185.21c-0.29-0.07-0.58-0.14-0.88-0.21c-4.92-1.14-9.92-2.05-15-2.74c-7.34-1-14.83-1.51-22.44-1.51    c-7.61,0-15.1,0.51-22.43,1.51c-5.08,0.68-10.08,1.6-15,2.74c-0.3,0.07-0.6,0.14-0.89,0.21c-73,17.29-127.3,82.88-127.3,161.17    c0,91.47,74.15,165.62,165.62,165.62s165.63-74.15,165.63-165.62C384.486,268.09,330.176,202.5,257.176,185.21z"/>
	</g>
</g>
<g>
	<g>
		<rect x="372.983" width="30" height="41.475"/>
	</g>
</g>
<g>
	<g>
		
			<rect x="327.667" y="20.743" transform="matrix(0.7021 -0.7121 0.7121 0.7021 72.5459 256.3672)" width="30.001" height="41.476"/>
	</g>
</g>
<g>
	<g>
		<rect x="412.727" y="26.467" transform="matrix(0.7121 -0.7021 0.7021 0.7121 95.6857 316.2696)" width="41.476" height="30"/>
	</g>
</g>
<g>
	<g>
		<path d="M372.984,63.667v31.271c0,13.452-10.943,24.395-24.395,24.395H336.71c-13.451,0-24.395-10.943-24.395-24.395V61.625    c0-27.409-22.299-49.708-49.709-49.708h-9.039c-27.409,0-49.708,22.299-49.708,49.708v47.096h-37.433v49.14    c4.95-1.38,9.95-2.56,15-3.53c4.96-0.97,9.96-1.74,15-2.32c7.4-0.84,14.89-1.26,22.43-1.26c7.55,0,15.03,0.42,22.44,1.26    c5.04,0.58,10.04,1.35,15,2.32c5.04,0.97,10.05,2.15,15,3.53v-49.14h-37.437V61.625c0-10.867,8.841-19.708,19.708-19.708h9.039    c10.868,0,19.709,8.841,19.709,19.708v33.314c0,29.994,24.401,54.395,54.395,54.395h11.879c29.993,0,54.395-24.401,54.395-54.395    V63.667H372.984z"/>
	</g>
</g>
<g>
</g>
<g>
</g>
<g>
</g>
<g>
</g>
<g>
</g>
<g>
</g>
<g>
</g>
<g>
</g>
<g>
</g>
<g>
</g>
<g>
</g>
<g>
</g>
<g>
</g>
<g>
</g>
<g>
</g>
</svg>
