<?xml version="1.0" encoding="iso-8859-1"?>
<!-- Generator: Adobe Illustrator 19.0.0, SVG Export Plug-In . SVG Version: 6.00 Build 0)  -->
<svg xmlns="http://www.w3.org/2000/svg" xmlns:xlink="http://www.w3.org/1999/xlink" version="1.1" id="Layer_1" x="0px" y="0px" viewBox="0 0 512 512" style="enable-background:new 0 0 512 512;" xml:space="preserve">
<g>
	<g>
		<polygon points="248.969,358.63 248.969,482 248.969,497 248.969,512 308.049,512 308.049,497 308.049,482 308.049,358.63   "/>
	</g>
</g>
<g>
	<g>
		<path d="M129.519,358.63c1.71,28.32,8.22,55.89,19.08,80.51c12.59,28.52,30.75,52.61,52.51,69.67l4.08,3.19h13.78v-15v-15V358.63    H129.519z"/>
	</g>
</g>
<g>
	<g>
		<path d="M338.049,358.63V482v15v15h15.82l4.08-3.19c21.76-17.06,39.92-41.15,52.51-69.67c10.86-24.62,17.37-52.19,19.08-80.51    H338.049z"/>
	</g>
</g>
<g>
	<g>
		<path d="M363.899,143.433V116.19h-42.63V0h-84.53v116.19h-21.14c-15.36-33.3-49.07-56.46-88.08-56.46    c-53.47,0-96.96,43.49-96.96,96.95c0,53.47,43.49,96.96,96.96,96.96c6.67,0,13.19-0.68,19.49-1.96    c-9.93,23.7-15.89,49.99-17.5,76.95h89.46V175.27h30v153.36h59.08V175.27h30v153.36h91.5c-1.69-28.32-8.19-55.9-19.03-80.52    c-11.42-25.93-27.46-48.22-46.62-64.89v-9.541c49.456,7.279,87.542,49.992,87.542,101.439v77.27h30v-77.27    C481.441,207.107,429.946,150.906,363.899,143.433z M191.928,175.005c-2.72,9.518-7.49,18.176-13.808,25.465    c-0.01,0.02-0.02,0.03-0.03,0.04c-12.281,14.16-30.401,23.13-50.571,23.13c-36.92,0-66.96-30.04-66.96-66.96    s30.04-66.95,66.96-66.95c32.94,0,60.39,23.9,65.93,55.27c0,0.002,0.001,0.003,0.001,0.005h-30.176v30H191.928z"/>
	</g>
</g>
<g>
</g>
<g>
</g>
<g>
</g>
<g>
</g>
<g>
</g>
<g>
</g>
<g>
</g>
<g>
</g>
<g>
</g>
<g>
</g>
<g>
</g>
<g>
</g>
<g>
</g>
<g>
</g>
<g>
</g>
</svg>
