<?xml version="1.0" encoding="iso-8859-1"?>
<!-- Generator: Adobe Illustrator 19.0.0, SVG Export Plug-In . SVG Version: 6.00 Build 0)  -->
<svg xmlns="http://www.w3.org/2000/svg" xmlns:xlink="http://www.w3.org/1999/xlink" version="1.1" id="Layer_1" x="0px" y="0px" viewBox="0 0 512 512" style="enable-background:new 0 0 512 512;" xml:space="preserve">
<g>
	<g>
		<path d="M479.002,120.524v-16.029h-29.998v16.029H251.937v-15.849H94.157l-1.58,13.219c-0.54,4.55-1.65,8.919-3.24,13.039    c0,0.001-0.001,0.002-0.001,0.003c-11.508-12.239-29.988-25.782-55.667-26.254l-0.551,29.993    C50.797,135,63.56,146.513,70.644,155.097c-0.002,0.001-0.004,0.003-0.006,0.004c-7.06,5.08-15.429,8.489-24.528,9.649    l-13.099,1.68v81.825C-8.097,301.612,0.643,390.226,1.043,394.076l1.41,13.429h124.562l-10.409-21.519    c-12.919-26.738-16.939-55.826-11.959-86.464c2.18-13.329,5.68-24.128,8.299-30.958h6.14v16.439    c0,17.279,14.059,31.328,31.338,31.328h27.038c17.279,0,31.328-14.049,31.328-31.328v-16.439h43.147v-29.078h189.591v-29.998    H251.937V185.49H512v0v-64.966H479.002z M178.791,285.003c0,0.73-0.59,1.33-1.33,1.33h-27.038c-0.74,0-1.34-0.6-1.34-1.33v-16.439    h29.708V285.003z M208.789,227.637h-79.215v-29.998h49.217V176.91h-49.217v-29.998h79.215V227.637z"/>
	</g>
</g>
<g>
</g>
<g>
</g>
<g>
</g>
<g>
</g>
<g>
</g>
<g>
</g>
<g>
</g>
<g>
</g>
<g>
</g>
<g>
</g>
<g>
</g>
<g>
</g>
<g>
</g>
<g>
</g>
<g>
</g>
</svg>
