<?xml version="1.0" encoding="iso-8859-1"?>
<!-- Generator: Adobe Illustrator 19.0.0, SVG Export Plug-In . SVG Version: 6.00 Build 0)  -->
<svg xmlns="http://www.w3.org/2000/svg" xmlns:xlink="http://www.w3.org/1999/xlink" version="1.1" id="Layer_1" x="0px" y="0px" viewBox="0 0 512 512" style="enable-background:new 0 0 512 512;" xml:space="preserve">
<g>
	<g>
		<polygon points="24.932,77.517 0,171.698 91.679,171.698 115.037,77.517   "/>
	</g>
</g>
<g>
	<g>
		<polygon points="488.4,108.494 488.4,77.517 146.225,77.517 122.867,171.698 488.4,171.698 488.4,138.764 512,138.764     512,108.494   "/>
	</g>
</g>
<g>
	<g>
		<path d="M35.416,201.968v34.488h18.899L4.318,434.483h103.877l28.463-112.771c11.134-0.233,27.975-1.789,45.541-7.852    c26.346-9.092,58.79-29.906,70.22-77.404h192.048v-34.488H35.416z M144.387,291.099l0.002-0.006l13.793-54.637h62.765    C206.769,279.318,167.65,289.157,144.387,291.099z"/>
	</g>
</g>
<g>
</g>
<g>
</g>
<g>
</g>
<g>
</g>
<g>
</g>
<g>
</g>
<g>
</g>
<g>
</g>
<g>
</g>
<g>
</g>
<g>
</g>
<g>
</g>
<g>
</g>
<g>
</g>
<g>
</g>
</svg>
